SplineFontDB: 3.0
FontName: BoonJot-Path
FullName: BoonJot-Path
FamilyName: BoonJot
Weight: Thin
Copyright: Copyright (c) 2015, Sungsit Sawaiwan (https://sungsit.com | gibbozer [at] gmail [dot] com)
UComments: "## Font weights+AAoA-- 400: Pen (100,70,12) (94,66,12) (90,63,12) (84,58,12) (80,56,12) (75,52,12)+AAoA-- 700: Pen (170,120,12), scale down 94%+AAoACgAA## Mark positions+AAoACgAA### SD+AAoA-- Below vowels x +AD0A 0, y +AD0A -180+AAoA-- Tones x +AD0A 0, y +AD0A -270+AAoACgAA### SDL+AAoA-- Tones x +AD0A -270 y +AD0A 0"
Version: 1.0
StrokeWidth: 40
ItalicAngle: 0
UnderlinePosition: -120
UnderlineWidth: 60
Ascent: 960
Descent: 240
InvalidEm: 0
LayerCount: 2
Layer: 0 0 "Back" 1
Layer: 1 0 "Fore" 0
PreferredKerning: 4
XUID: [1021 692 2137105781 2794086]
StyleMap: 0x0000
FSType: 0
OS2Version: 0
OS2_WeightWidthSlopeOnly: 0
OS2_UseTypoMetrics: 1
CreationTime: 1429887875
ModificationTime: 1435772637
PfmFamily: 65
TTFWeight: 400
TTFWidth: 5
LineGap: 108
VLineGap: 0
OS2TypoAscent: 960
OS2TypoAOffset: 0
OS2TypoDescent: -240
OS2TypoDOffset: 0
OS2TypoLinegap: 108
OS2WinAscent: 1212
OS2WinAOffset: 0
OS2WinDescent: 511
OS2WinDOffset: 0
HheadAscent: 1212
HheadAOffset: 0
HheadDescent: -511
HheadDOffset: 0
OS2CapHeight: 800
OS2XHeight: 600
OS2Vendor: 'BUni'
MarkAttachClasses: 1
DEI: 91125
LangName: 1033 "" "" "400" "" "" "" "" "" "BoonUni" "Sungsit Sawaiwan" "" "https://boonuni.com/" "https://sungsit.com/"
Encoding: UnicodeFull
Compacted: 1
UnicodeInterp: none
NameList: AGL For New Fonts
DisplaySize: -48
AntiAlias: 1
FitToEm: 1
WinInfo: 48 16 8
BeginPrivate: 7
BlueValues 31 [-30 0 600 630 800 830 840 870]
OtherBlues 21 [-270 -240 1200 1230]
BlueShift 1 7
StdHW 4 [68]
StdVW 4 [98]
StemSnapH 16 [58 64 68 72 78]
StemSnapV 14 [80 92 98 108]
EndPrivate
TeXData: 1 0 0 314572 157286 104857 419430 1048576 104857 783286 444596 497025 792723 393216 433062 380633 303038 157286 324010 404750 52429 2506097 1059062 262144
BeginChars: 1114113 238

StartChar: uni0E01
Encoding: 3585 3585 0
GlifName: uni0E_01
Width: 660
VWidth: 0
Flags: HW
HStem: -16 21G<121 151.5> 544 72<197.714 454.688>
VStem: 91 98<-8.88208 309.75> 105 98<106.234 529.522> 467 98<9.95226 457.843> 476 98<181.079 182.89 186.032 521.386>
LayerCount: 2
Fore
SplineSet
140 20 m 5
 152 294 165 478 140 545 c 5
 193 570 304 580 380 580 c 4
 458 580 525 547 525 465 c 4
 525 402 509 225 520 40 c 1029
EndSplineSet
EndChar

StartChar: o
Encoding: 111 111 2
GlifName: o
Width: 660
VWidth: 0
Flags: HW
HStem: -21 72<264.383 415.134> 552 72<253.982 415.243>
VStem: 61 98<167.546 436.89> 506 98<153.815 395.285>
LayerCount: 2
Fore
SplineSet
490 449 m 5
 529 439 555 357 555 290 c 4
 555 -78 110 -76 110 295 c 4
 110 637 450 652 505 480 c 1029
EndSplineSet
EndChar

StartChar: O
Encoding: 79 79 3
GlifName: O_
Width: 830
VWidth: 0
Flags: HW
HStem: -22 79<331.951 521.844> 742 79<323.643 516.994>
VStem: 66 108<242.258 554.392> 659 108<229.005 504.703>
LayerCount: 2
Fore
SplineSet
626 596 m 5
 678 583 713 473 713 384 c 4
 713 -107 120 -104 120 391 c 4
 120 847 573 867 646 638 c 1029
EndSplineSet
EndChar

StartChar: Q
Encoding: 81 81 4
GlifName: Q_
Width: 830
VWidth: 0
Flags: HW
HStem: -206 68<708.212 769.478> -17 73<334.308 459.534> 514 72<547.031 645.147> 742 79<323.643 516.994>
VStem: 66 108<242.641 554.392> 407 94<149.632 458.517> 593 107<607.739 670.872> 675 95<230.164 482.681>
LayerCount: 2
Fore
SplineSet
730 -170 m 4
 418 -44 356 550 605 550 c 4
 687 550 720 474 720 385 c 4
 720 -96 120 -104 120 391 c 0
 120 847 573 867 646 638 c 1025
EndSplineSet
EndChar

StartChar: c
Encoding: 99 99 5
GlifName: c
Width: 600
VWidth: 0
Flags: HW
HStem: -22 76<256.408 426.357> 548 76<256.238 407.325>
VStem: 58 104<161.017 438.343> 433 104<441.156 522.171>
LayerCount: 2
Fore
SplineSet
510 105 m 1
 428 -29 110 -44 110 295 c 0
 110 649 485 644 485 470 c 1029
EndSplineSet
EndChar

StartChar: C
Encoding: 67 67 6
GlifName: C_
Width: 750
VWidth: 0
Flags: HW
HStem: -20 82<327.782 540.15> 739 82<331.244 521.092>
VStem: 68 114<235.841 554.552> 569 114<596.072 692.146>
LayerCount: 2
Fore
SplineSet
660 139 m 5
 551 -40 125 -59 125 393 c 4
 125 865 626 858 626 626 c 1029
EndSplineSet
EndChar

StartChar: a
Encoding: 97 97 7
GlifName: a
Width: 680
VWidth: 0
Flags: HW
HStem: -21 72<225.748 357.571> -11 70<607.178 653.525> 549 72<293.112 416.394>
VStem: 60 99<126.817 379.327> 441 98<224.477 360 438.78 523.374>
LayerCount: 2
Fore
SplineSet
610 25 m 5
 569 36 531 86 490 340 c 5
 482 204 444 15 290 15 c 4
 -2 15 85 585 379 585 c 4
 470 585 490 492 490 467 c 1029
EndSplineSet
EndChar

StartChar: i
Encoding: 105 105 8
GlifName: i
Width: 340
VWidth: 0
Flags: HW
HStem: -21 21G<181.5 194> 585 20G<151.5 184.5> 725 137<109.137 229.514>
VStem: 86 168<749.13 838.517> 114 100<34.625 596.875>
LayerCount: 2
Fore
SplineSet
195 15 m 1
 163 37 163 87 165 163 c 0
 169 328 167 405 165 570 c 1025
EndSplineSet
Refer: 12 46 S 1 0 0 1 5 730 2
EndChar

StartChar: exclam
Encoding: 33 33 9
GlifName: exclam
Width: 330
VWidth: 0
Flags: HW
HStem: -5 137<104.137 224.514>
VStem: 81 168<19.1304 108.517> 101 119<494.584 825.529> 125 80<274.406 573.436>
LayerCount: 2
Fore
SplineSet
140 800 m 1
 180 807 l 1
 178 720 182 570 165 300 c 1
 157 438 150 713 140 800 c 1
EndSplineSet
Refer: 12 46 S 1 0 0 1 0 0 2
EndChar

StartChar: l
Encoding: 108 108 10
GlifName: l
Width: 360
VWidth: 0
Flags: HW
HStem: -23 70<240.5 319.523> 820 20G<146.5 179>
VStem: 106 98<84.8896 830.452>
LayerCount: 2
Fore
SplineSet
275 13 m 1
 228 24 164 51 160 151 c 0
 150 401 156 554 160 805 c 1029
EndSplineSet
EndChar

StartChar: u
Encoding: 117 117 11
GlifName: u
Width: 680
VWidth: 0
Flags: HW
HStem: -21 72<235.75 364.815> 591 20G<135.5 148 504.5 527>
VStem: 86 98<109.842 605.889> 471 93<300.737 592>
LayerCount: 2
Fore
SplineSet
610 20 m 5
 544 77 520 209 515 575 c 5
 507 345 502 15 290 15 c 0
 199 15 135 85 135 235 c 0
 135 361 139 483 130 575 c 1025
EndSplineSet
EndChar

StartChar: period
Encoding: 46 46 12
GlifName: period
Width: 330
VWidth: 0
Flags: HW
HStem: -5 137<104.137 224.514>
VStem: 81 168<19.1304 108.517>
LayerCount: 2
Fore
SplineSet
183 89 m 6
 187 84 195 76 195 65 c 4
 195 47 184 34 163 34 c 4
 147 34 135 43 135 62 c 4
 135 77 147 93 167 93 c 5
 183 89 l 6
EndSplineSet
EndChar

StartChar: b
Encoding: 98 98 13
GlifName: b
Width: 670
VWidth: 0
Flags: HW
HStem: -21 72<221.914 380.375> 524 67<214.334 356.012> 546 71<253.376 424.378> 826 20G<134 147>
VStem: 81 98<525.874 839.172> 91 98<83.3053 765.94> 504 99<207.586 458.949>
LayerCount: 2
Fore
SplineSet
260 560 m 0
 655 712 641 15 280 15 c 0
 209 15 140 68 140 130 c 0
 141 374 148 705 130 810 c 1029
EndSplineSet
EndChar

StartChar: comma
Encoding: 44 44 15
GlifName: comma
Width: 330
VWidth: 0
Flags: HW
HStem: -182 58<66.3318 120.687> 48 79<81.6628 147.997>
VStem: 170 91<-71.6335 57.8213>
LayerCount: 2
Fore
SplineSet
110 80 m 4
 231 153 271 -69 105 -150 c 1028
EndSplineSet
EndChar

StartChar: q
Encoding: 113 113 17
GlifName: q
Width: 670
VWidth: 0
Flags: HW
HStem: -261 87<578.047 640.687> -17 71<234.208 417.755> 9 67<307.989 450.666> 549 72<280.417 438.086>
VStem: 59 100<142.27 397.349> 459 98<-183.872 308.749> 471 98<176.162 517.066>
LayerCount: 2
Fore
SplineSet
405 40 m 4
 10 -112 19 585 380 585 c 4
 451 585 520 532 520 470 c 4
 520 318 508 147 508 12 c 4
 508 -154 515 -269 610 -210 c 1029
EndSplineSet
EndChar

StartChar: d
Encoding: 100 100 18
GlifName: d
Width: 720
VWidth: 0
Flags: HW
HStem: -21 72<249.299 384.415> 544 72<264.592 425.53> 826 20G<531.5 544.5>
VStem: 61 98<158.648 417.704> 476 98<183.141 490.816 586 838.076>
LayerCount: 2
Fore
SplineSet
525 840 m 4
 534 678 522 453 525 330 c 0
 529 145 575 29 640 15 c 1024
525 300 m 0
 506 186 450 15 320 15 c 0
 28 15 39 580 360 580 c 0
 515 580 520 403 522 380 c 1025
EndSplineSet
EndChar

StartChar: uni25CC
Encoding: 9676 9676 19
GlifName: uni25C_C_
Width: 720
VWidth: -360
Flags: HW
HStem: -20 60<326.061 394.777> 19 60<183.146 243.808 476.19 516.718> 122 66<78.7902 128.856 596.187 630.922> 265 70<41.8555 98.1472 621.856 678.147> 412 66<94.1868 128.922 583.425 630.856> 518 66<186.19 226.718 473.146 533.808> 560 60<326.061 394.777> 583 1<220.141 227.906>
VStem: 40 60<266.061 334.777> 76 1<160.141 167.906> 79 60<126.19 166.718 413.146 473.808> 182 66<29.0781 63.8132 531.144 581.21> 325 70<-18.1472 38.1445 561.853 618.144> 472 66<29.1435 76.5752 531.078 565.813> 581 60<123.146 183.808 416.19 456.718> 620 60<266.061 334.777>
LayerCount: 2
Fore
SplineSet
387 31 m 4xb81c
 388 30 395 24 395 13 c 6
 395 7 l 6
 393 -4 379 -20 356 -20 c 4
 335 -20 325 -6 325 7 c 4
 325 17 334 40 364 40 c 4
 366 40 369 39 371 39 c 6
 378 37 l 6
 382 36 385 33 387 31 c 4xb81c
387 611 m 4
 388 610 395 604 395 593 c 6
 395 587 l 6
 393 576 379 560 356 560 c 4
 335 560 325 574 325 587 c 4
 325 597 334 620 364 620 c 4x3a1c
 366 620 369 619 371 619 c 6
 378 617 l 6
 382 616 385 613 387 611 c 4
629 327 m 4
 630 328 636 335 647 335 c 6
 653 335 l 6
 664 333 680 319 680 296 c 4
 680 275 666 265 653 265 c 4
 643 265 620 274 620 304 c 4x381d
 620 306 621 309 621 311 c 6
 623 318 l 6
 624 322 627 325 629 327 c 4
49 327 m 4
 50 328 56 335 67 335 c 6
 73 335 l 6
 84 333 100 319 100 296 c 4
 100 275 86 265 73 265 c 4
 63 265 40 274 40 304 c 4x389c
 40 306 41 309 41 311 c 6
 43 318 l 6
 44 322 47 325 49 327 c 4
518 81 m 4
 519 81 528 79 534 69 c 6
 537 64 l 6
 538 62 538 58 538 55 c 4
 538 44 533 30 517 21 c 4
 511 18 504 16 499 16 c 4
 488 16 480 22 476 29 c 4
 474 32 472 39 472 45 c 4
 472 55 477 68 493 77 c 4
 495 78 498 78 500 79 c 6x781c
 507 81 l 6
 509 81 511 82 513 82 c 4
 515 82 516 81 518 81 c 4
228 583 m 4x391c
 229 583 238 581 244 571 c 6
 247 566 l 6
 248 564 248 560 248 557 c 4
 248 546 243 532 227 523 c 4
 221 520 214 518 209 518 c 4
 198 518 190 524 186 531 c 4
 184 534 182 541 182 547 c 4
 182 557 187 570 203 579 c 4
 205 580 208 581 210 582 c 6
 217 584 l 6
 218 584 219 584 220 584 c 4x3c1c
 223 584 226 584 228 583 c 4x391c
579 458 m 4
 579 459 581 468 591 474 c 6
 596 477 l 6
 598 478 602 478 605 478 c 4
 616 478 630 473 639 457 c 4
 642 451 644 444 644 439 c 4
 644 428 638 420 631 416 c 4
 628 414 621 412 615 412 c 4
 605 412 592 417 583 433 c 4
 582 435 582 438 581 440 c 6x381e
 579 447 l 6
 579 449 578 451 578 453 c 4
 578 455 579 456 579 458 c 4
77 168 m 4x385c
 77 169 79 178 89 184 c 6
 94 187 l 6
 96 188 100 188 103 188 c 4
 114 188 128 183 137 167 c 4
 140 161 142 154 142 149 c 4
 142 138 136 130 129 126 c 4
 126 124 119 122 113 122 c 4
 103 122 90 127 81 143 c 4
 80 145 79 148 78 150 c 6
 76 157 l 6
 76 158 76 159 76 160 c 4
 76 163 76 166 77 168 c 4x385c
249 54 m 4
 249 53 250 50 250 46 c 4
 250 43 250 38 247 34 c 6
 244 29 l 6
 240 23 230 19 219 19 c 4
 212 19 205 20 197 25 c 4
 185 32 180 43 180 52 c 4
 180 57 181 60 183 64 c 4
 186 70 196 79 211 79 c 4x781c
 217 79 225 78 233 73 c 4
 235 72 237 69 239 68 c 6
 244 63 l 6
 247 60 248 57 249 54 c 4
539 556 m 4
 539 555 540 552 540 548 c 4
 540 545 540 540 537 536 c 6
 534 531 l 6
 530 525 520 521 509 521 c 4
 502 521 495 522 487 527 c 4
 475 534 470 545 470 554 c 4
 470 559 471 562 473 566 c 4
 476 572 486 581 501 581 c 4
 507 581 515 580 523 575 c 4
 525 574 527 572 529 571 c 6
 534 566 l 6
 537 563 538 559 539 556 c 4
606 189 m 4
 607 189 610 190 614 190 c 4
 617 190 622 190 626 187 c 6
 631 184 l 6
 637 180 641 170 641 159 c 4
 641 152 640 145 635 137 c 4
 628 125 617 120 608 120 c 4
 603 120 600 121 596 123 c 4
 590 126 581 136 581 151 c 4x381e
 581 157 582 165 587 173 c 4
 588 175 591 177 592 179 c 6
 597 184 l 6
 600 187 603 188 606 189 c 4
104 479 m 4
 105 479 108 480 112 480 c 4
 115 480 120 480 124 477 c 6
 129 474 l 6
 135 470 139 460 139 449 c 4
 139 442 138 435 133 427 c 4
 126 415 115 410 106 410 c 4
 101 410 98 411 94 413 c 4
 88 416 79 426 79 441 c 4x383c
 79 447 80 455 85 463 c 4
 86 465 88 467 89 469 c 6
 94 474 l 6
 97 477 101 478 104 479 c 4
EndSplineSet
EndChar

StartChar: uni0E02
Encoding: 3586 3586 20
GlifName: uni0E_02
Width: 600
VWidth: 0
Flags: HW
HStem: -19 21G<288.5 389> 584 20G<102.5 205>
LayerCount: 2
Fore
SplineSet
510 560 m 1
 478 435 460 340 445 255 c 0
 417 101 400 15 340 15 c 0
 306 15 285 72 265 170 c 0
 250 244 237 330 225 440 c 0
 217 516 196 570 150 570 c 4
 108 570 60 465 60 465 c 1025
EndSplineSet
EndChar

StartChar: uni0E40
Encoding: 3648 3648 21
GlifName: uni0E_40
Width: 330
VWidth: 0
Flags: HW
HStem: -30 21G<190.5 203>
VStem: 116 98<41.6746 588.592>
LayerCount: 2
Fore
SplineSet
205 6 m 5
 188 28 171 68 170 154 c 4
 168 432 169 508 165 560 c 1029
EndSplineSet
EndChar

StartChar: uni0E41
Encoding: 3649 3649 22
GlifName: uni0E_41
Width: 600
VWidth: 0
Flags: HW
HStem: -26 36G<206.5 219 461 473.5> 586 20G<441 454>
VStem: 116 98<58.0983 588.614> 391 98<52.2125 600.984>
LayerCount: 2
Fore
SplineSet
475 25 m 5
 458 43 440 91 440 185 c 4
 440 350 440 531 435 570 c 1029
220 10 m 1
 186 29 170 80 170 165 c 0
 170 330 169 520 165 560 c 1025
EndSplineSet
EndChar

StartChar: uni0E42
Encoding: 3650 3650 23
GlifName: uni0E_42
Width: 390
VWidth: 0
Flags: HW
HStem: -29 21G<216 228> 929 65<400.81 524.758>
VStem: 165 93<2.09914 525.281> 175 92<306.878 784.238>
LayerCount: 2
Fore
SplineSet
232 5 m 5
 206 76 207 134 220 590 c 4
 225 773 197 847 70 900 c 5
 217 894 383 929 480 960 c 1029
EndSplineSet
EndChar

StartChar: uni0E43
Encoding: 3651 3651 24
GlifName: uni0E_43
Width: 390
VWidth: 0
Flags: HW
HStem: -24 21G<227 239> 588 64<306 341.777> 948 64<114.234 214.102>
VStem: 1 91<752.392 927.282> 189 100<-18.2443 172.045> 189 91<-8.63584 433.486> 232 89<663.051 932.553>
LayerCount: 2
Fore
SplineSet
243 10 m 5
 232 73 229 215 260 650 c 4
 271 803 316 980 170 980 c 0
 -23 980 1 620 300 620 c 1025
EndSplineSet
EndChar

StartChar: uni0E44
Encoding: 3652 3652 25
GlifName: uni0E_44
Width: 390
VWidth: 0
Flags: HW
HStem: -28 21G<203 215> 849 67<135.797 249> 861 62<354.566 389>
VStem: 152 92<182.533 748.331>
LayerCount: 2
Fore
SplineSet
0 980 m 5
 104 886 232 870 390 890 c 5
 222 826 203 728 200 600 c 4
 193 307 210 49 220 5 c 1030
EndSplineSet
EndChar

StartChar: uni0E32
Encoding: 3634 3634 26
GlifName: uni0E_32
Width: 500
VWidth: 0
Flags: HW
HStem: -25 21G<321 354.5> 545 71<182.704 295.182>
VStem: 291 98<-18.5163 340.78> 312 98<145.286 529.652>
LayerCount: 2
Fore
SplineSet
65 435 m 4
 123 594 380 661 360 435 c 4
 344 259 337 138 340 10 c 1025
EndSplineSet
EndChar

StartChar: uni0E4D
Encoding: 3661 3661 27
GlifName: uni0E_4D_
Width: 0
VWidth: 0
Flags: H
HStem: 703 54<-200.566 -124.57> 863 54<-201.035 -160.235>
VStem: -282 74<763.863 862.064> -122 74<760.044 859.038>
LayerCount: 2
Fore
SplineSet
-140 890 m 5
 -97 873 -85 840 -85 800 c 4
 -85 758 -127 730 -170 730 c 4
 -204 730 -245 758 -245 805 c 4
 -245 848 -219 890 -170 890 c 1030
EndSplineSet
EndChar

StartChar: uni0E15
Encoding: 3605 3605 29
GlifName: uni0E_15
Width: 690
VWidth: 0
Flags: HW
HStem: -21 67<231.142 301.762> 546 67<226.791 322.604> 580 20G<567.5 587>
VStem: 64 92<145.509 456.014> 309 92<49.3362 137.193> 337 78<500 531.594> 513 94<-9.26863 485>
LayerCount: 2
Fore
SplineSet
565 20 m 4
 552 78 568 483 560 560 c 5
 460 483 380 450 380 450 c 4
 422 625 110 665 110 300 c 4
 110 -47 355 -39 355 110 c 1028
EndSplineSet
EndChar

StartChar: uni0E14
Encoding: 3604 3604 30
GlifName: uni0E_14
Width: 680
VWidth: 0
Flags: HW
HStem: -23 73<232.819 297.641> 547 72<246.376 431.378>
VStem: 60 99<163.087 450.875> 306 98<54.8887 143.22> 495 98<-8.72837 491.913>
LayerCount: 2
Fore
SplineSet
355 115 m 4
 355 -19 130 -77 110 310 c 4
 91 670 553 642 550 410 c 4
 547 186 542 105 545 20 c 1029
EndSplineSet
EndChar

StartChar: uni0E03
Encoding: 3587 3587 31
GlifName: uni0E_03
Width: 610
VWidth: 0
Flags: HW
HStem: -24 21G<293 407> 593 20G<54 64.5 229.5 240.5>
VStem: 11 78<500.55 609.807> 224 83<163.53 519.716>
LayerCount: 2
Fore
SplineSet
50 585 m 1
 72 484 91 445 110 431 c 1
 134 459 176 521 230 580 c 1
 269 580 263 516 264 440 c 0
 266 350 269 272 275 205 c 4
 286 81 307 10 350 10 c 4
 411 10 431 92 460 250 c 4
 475 334 491 438 520 560 c 1029
EndSplineSet
EndChar

StartChar: uni0E04
Encoding: 3588 3588 32
GlifName: uni0E_04
Width: 660
VWidth: 0
Flags: HW
HStem: -4 6G<170.5 190.5 463.5 490> 312 61<330.116 386.666> 551 67<234.688 415.816>
VStem: 59 93<198.383 462.644> 508 92<190.631 454.14>
LayerCount: 2
Fore
SplineSet
345 340 m 5
 190 272 188 29 185 20 c 5
 179 28 130 172 110 300 c 4
 51 673 605 686 550 300 c 4
 533 179 485 30 485 30 c 1029
EndSplineSet
EndChar

StartChar: uni0E05
Encoding: 3589 3589 33
GlifName: uni0E_05
Width: 660
VWidth: 0
Flags: HW
HStem: -4 7G<177 194.5 468 494.5> 549 67<190.156 268.394 403.731 467.73>
VStem: 60 92<166.929 499.848> 508 92<155.562 496.733>
LayerCount: 2
Fore
SplineSet
355 340 m 5
 195 307 198 35 185 20 c 5
 172 31 106 205 106 354 c 4
 106 579 230 652 340 510 c 5
 452 654 554 574 554 352 c 4
 554 231 523 123 490 30 c 1028
EndSplineSet
EndChar

StartChar: uni0E06
Encoding: 3590 3590 34
GlifName: uni0E_06
Width: 670
VWidth: 0
Flags: HW
HStem: -27 21G<147.5 199.5 527.5 547> 223 64<136.264 239.482> 598 10G<54 64.5 245 257 528.5 557>
VStem: 11 78<511.716 614.807> 35 85<58.1167 209.093> 251 84<280 526.456> 486 90<106 297.644> 494 92<287.992 602.595>
LayerCount: 2
Fore
SplineSet
50 590 m 1
 72 489 101 450 120 436 c 1
 144 468 196 521 250 590 c 1
 281 576 290 517 290 465 c 4
 290 351 285 220 267 127 c 4
 253 54 232 5 200 5 c 4
 135 5 80 37 80 130 c 4
 80 211 129 255 200 255 c 4
 262 255 330 212 388 162 c 4
 469 93 530 10 530 10 c 5
 535 340 536 456 540 575 c 1029
EndSplineSet
EndChar

StartChar: uni0E07
Encoding: 3591 3591 35
GlifName: uni0E_07
Width: 540
VWidth: 0
Flags: HW
HStem: -26 21G<237.5 334> 549 72<240.906 337.189>
VStem: 41 97<265.623 358.893> 381 98<139.637 492.995>
LayerCount: 2
Fore
SplineSet
200 540 m 5
 238 569 273 585 305 585 c 4
 360 585 394 542 412 480 c 4
 425 434 430 378 430 320 c 4
 430 258 422 198 407 148 c 4
 383 67 342 10 290 10 c 4
 236 10 188 81 150 165 c 4
 126 220 107 281 90 330 c 1029
EndSplineSet
EndChar

StartChar: uni0E08
Encoding: 3592 3592 36
GlifName: uni0E_08
Width: 600
VWidth: 0
Flags: HW
HStem: -11 21G<320.5 338> 229 88<121.127 187.907> 552 72<204.068 369.742>
VStem: 444 95<204.54 473.303>
LayerCount: 2
Fore
SplineSet
80 465 m 0
 207 643 490 645 490 355 c 0
 490 156 365 46 340 30 c 1
 332 49 277 355 150 265 c 1028
EndSplineSet
EndChar

StartChar: uni0E09
Encoding: 3593 3593 37
GlifName: uni0E_09
Width: 670
VWidth: 0
Flags: HW
HStem: -19 58<496.115 552.441> 231 58<496 549.607> 557 69<207.184 378.89>
VStem: 410 80<39.2246 191> 426 82<288.816 507.937> 570 80<52.5811 212.557>
LayerCount: 2
Fore
SplineSet
131 296 m 5
 160 289 181 271 186 220 c 4
 194 143 201 35 200 10 c 5
 213 30 278 116 350 180 c 0
 397 222 450 260 510 260 c 0
 574 260 610 207 610 141 c 0
 610 45 552 10 510 10 c 0
 466 10 450 56 450 100 c 0
 450 183 451 226 465 390 c 0
 486 646 207 643 80 465 c 1024
EndSplineSet
EndChar

StartChar: uni0E0A
Encoding: 3594 3594 38
GlifName: uni0E_0A_
Width: 630
VWidth: 0
Flags: HW
HStem: -29 68<294.375 415.929> 589 20G<148.5 242>
VStem: 186 92<47.2937 398.972> 197 92<484 536.428> 473 92<94.5951 273.127>
LayerCount: 2
Fore
SplineSet
550 620 m 5
 381 480 260 440 260 440 c 5
 432 410 519 290 519 184 c 4
 519 89 450 5 310 5 c 4
 261 5 232 35 232 211 c 4
 232 263 235 329 240 410 c 4
 242 436 243 461 243 483 c 4
 243 537 233 575 190 575 c 4
 148 575 109 511 90 470 c 1029
EndSplineSet
EndChar

StartChar: uni0E0B
Encoding: 3595 3595 39
GlifName: uni0E_0B_
Width: 630
VWidth: 0
Flags: HW
HStem: -24 68<310.214 416.319> 593 20G<54 64.5 246.5 263>
VStem: 11 78<506.58 609.807> 199 89<61.3323 388.147> 226 74<235.267 391 483 502.579> 474 92<99.0483 277.384>
LayerCount: 2
Fore
SplineSet
550 620 m 1
 381 480 270 430 270 430 c 1
 436 401 520 295 520 190 c 0
 520 95 451 10 320 10 c 0
 271 10 242 104 242 210 c 0
 242 355 289 457 250 585 c 5
 196 516 144 463 120 431 c 5
 101 445 72 484 50 585 c 1029
EndSplineSet
EndChar

StartChar: uni0E0C
Encoding: 3596 3596 40
GlifName: uni0E_0C_
Width: 965
VWidth: 0
Flags: HW
HStem: -26 59<451.311 500.156> -17 68<186.071 263.733> 234 62<443.662 494.931> 546 68<198.929 454.516> 583 20G<823.5 852>
VStem: 84 92<56.0967 368.592> 114 92<189.304 524.888> 343 81<57.8448 218.476> 507 79<33.6803 194.569> 780 91<88 305.514> 789 92<286.626 597.595>
LayerCount: 2
Fore
SplineSet
221 17 m 1
 150 17 130 59 130 120 c 0
 130 217 160 339 160 440 c 0
 160 479 152 520 140 535 c 1
 193 560 289 580 382 580 c 0
 458 580 521 545 525 465 c 4
 531 359 538 293 545 180 c 4
 549 109 551 5 485 5 c 4
 431 5 385 54 385 130 c 4
 385 201 419 265 485 265 c 4
 541 265 598 215 650 175 c 4
 740.321289062 105.522460938 825 10 825 10 c 5
 830 340 831 451 835 570 c 1029
EndSplineSet
EndChar

StartChar: uni0E0D
Encoding: 3597 3597 41
GlifName: uni0E_0D_
Width: 965
VWidth: 0
Flags: HW
HStem: -252 65<612.022 754.975> -21 72<189.781 280.625 600.144 759.481> 544 72<191.472 455.263> 585 20G<806.5 839>
VStem: 81 98<57.8308 415.966> 101 98<143.17 523.843> 471 98<81.1507 523.934> 513 88<-174.887 -115.094> 771 98<66.3469 124.765 282.902 598.22> 781 98<72.4912 425.41>
LayerCount: 2
Fore
SplineSet
845 -120 m 0
 731 -281 529 -222 560 -120 c 1024
EndSplineSet
Refer: 91 63642 S 1 0 0 1 0 0 2
EndChar

StartChar: uni0E0E
Encoding: 3598 3598 42
GlifName: uni0E_0E_
Width: 660
VWidth: 0
Flags: HW
HStem: -137 60<236.976 373.106> -16 92<41.4082 127.626> 544 72<184.839 455.263>
VStem: 126 88<-236.956 -153.25> 131 98<62 360.527> 470 93<-152 213.171>
LayerCount: 2
Fore
SplineSet
170 -210 m 4
 208 11 517 -200 517 -200 c 5
 515 -158 514 -116 514 -75 c 4
 514 67 525 416 525 465 c 4
 525 547 458 580 382 580 c 4
 306 580 183 565 130 540 c 5
 150 391 180 223 180 130 c 4
 180 69 180 20 135 20 c 4
 120 20 101 29 75 40 c 1029
EndSplineSet
EndChar

StartChar: uni0E0F
Encoding: 3599 3599 43
GlifName: uni0E_0F_
Width: 660
VWidth: 0
Flags: HW
HStem: -240 59<176.77 259.236> -16 92<41.4082 127.717> 544 72<184.884 455.263>
VStem: 97 79<-180.03 -105.993> 131 100<63.2031 360.527> 470 93<-161.764 335.351> 476 98<54.1479 521.386>
LayerCount: 2
Fore
SplineSet
75 40 m 1
 101 29 120 20 135 20 c 0
 180 20 180 69 180 130 c 0
 180 223 150 391 130 540 c 1
 183 565 306 580 382 580 c 0
 458 580 525 547 525 465 c 0
 525 416 514 67 514 -75 c 4
 514 -131 519 -180 525 -200 c 5
 477 -200 422 -174 330 -110 c 5
 301 -229 91 -252 150 -110 c 1028
EndSplineSet
EndChar

StartChar: uni0E10
Encoding: 3600 3600 44
GlifName: uni0E_10
Width: 600
VWidth: 0
Flags: HW
HStem: -237 58<159.114 245.112> -229 167<447.141 513.957> -9 21G<306.5 323> 215 67<178 205.666> 366 64<123.389 309.985> 558 64<161.458 347.577>
VStem: 30 90<435.803 520.457> 80 79<-178.918 -106.515> 92 78<-150.576 -85.1747> 430 90<205.034 434.491> 434 80<-171.919 -65.0426>
LayerCount: 2
Fore
SplineSet
474 -90 m 0
 474 -146 479 -180 485 -200 c 1
 437 -200 402 -174 310 -110 c 1
 281 -229 71 -252 130 -110 c 1024
EndSplineSet
Refer: 94 63646 S 1 0 0 1 0 0 2
EndChar

StartChar: uni0E11
Encoding: 3601 3601 45
GlifName: uni0E_11
Width: 700
VWidth: 0
Flags: HW
HStem: -8 14G<185 203.5 557 588> 592 20G<54 64.5 241 256.5 450.5 558.5>
VStem: 11 78<487.127 608.807> 161 84<184 382.781> 529 92<-2.4357 526.592>
LayerCount: 2
Fore
SplineSet
575 25 m 5
 571 134 570 197 570 305 c 4
 570 416 570 580 505 580 c 4
 435 580 403 464 355 350 c 4
 284 183 235 63 210 15 c 1
 204 52 199 194 210 290 c 0
 224 417 276 508 239 586 c 1
 191 539 134 463 110 431 c 1
 91 445 72 483 50 584 c 1025
EndSplineSet
EndChar

StartChar: uni0E12
Encoding: 3602 3602 46
GlifName: uni0E_12
Width: 965
VWidth: 0
Flags: HW
HStem: -22 71<224.5 331.694> -22 69<228.051 295.766 471.574 525.563> 241 58<472.33 532.752> 546 67<222.58 316.03> 583 20G<823.5 852>
VStem: 64 92<143.491 458.737> 375 80<58.3691 227.46> 535 80<39.7756 190 299 492.363> 781 90<100 308.932> 789 92<290.26 597.595>
LayerCount: 2
Fore
SplineSet
835 570 m 5
 831 451 830 345 825 15 c 5
 825 15 764 93 680 175 c 0
 631 223 576 270 520 270 c 0
 449 270 415 216 415 145 c 0
 415 59 452 10 515 10 c 0
 558 10 575 73 575 185 c 0
 575 283 573 474 550 560 c 1
 450 483 370 450 370 450 c 0
 412 625 110 665 110 300 c 0
 110 93 201 -5 290 15 c 1024
EndSplineSet
EndChar

StartChar: uni0E13
Encoding: 3603 3603 47
GlifName: uni0E_13
Width: 975
VWidth: 0
Flags: HW
HStem: -19 58<816 855.295> -17 68<186.071 280.671> 241 58<799 845.277> 546 68<188.929 445.124> 584 20G<770.5 797.5>
VStem: 84 92<56.0967 408.701> 104 92<150.194 524.888> 454 96<115 296.529> 469 92<175.502 523.568> 709 81<40.9427 192.947> 865 80<43.8588 224.03>
LayerCount: 2
Fore
SplineSet
275 30 m 1
 250 21 239 17 221 17 c 0
 150 17 130 59 130 120 c 0
 130 217 150 339 150 440 c 4
 150 479 142 520 130 535 c 5
 183 560 279 580 372 580 c 4
 448 580 515 547 515 465 c 4
 515 369 505 135 500 15 c 5
 513 35 586 114 650 180 c 0
 698 229 752 270 800 270 c 0
 881 270 905 209 905 131 c 0
 905 35 858 10 810 10 c 0
 770 10 750 43 750 140 c 0
 750 227 760 355 780 570 c 1025
EndSplineSet
EndChar

StartChar: uni0E16
Encoding: 3606 3606 48
GlifName: uni0E_16
Width: 660
VWidth: 0
Flags: HW
HStem: -19 72<185.304 280.625> -2 68<215.403 321.711> 544 72<199.454 455.263>
VStem: 81 98<57.8308 368.587> 111 98<189.311 524.017> 465 98<-9.73438 435.754> 476 98<171.456 521.386>
LayerCount: 2
Fore
SplineSet
275 30 m 5
 250 21 239 17 221 17 c 4
 150 17 130 59 130 120 c 4
 130 217 160 339 160 440 c 4
 160 479 149 520 135 535 c 5
 188 560 289 580 382 580 c 4
 458 580 525 547 525 465 c 4
 525 416 514 287 514 145 c 4
 514 104 515 62 517 20 c 1029
EndSplineSet
EndChar

StartChar: uni0E17
Encoding: 3607 3607 49
GlifName: uni0E_17
Width: 660
VWidth: 0
Flags: HW
HStem: -8 21G<120.5 140.5 507 537.5> 546 68<389.705 455.132>
VStem: 58 92<384.461 607.648> 104 91<1 88.0892> 484 92<0.474579 513.624>
LayerCount: 2
Fore
SplineSet
525 25 m 5
 525 130 530 217 530 290 c 4
 530 490 515 580 435 580 c 4
 346 580 303 476 260 360 c 4
 198 193 166 51 150 5 c 5
 150 130 134 376 120 485 c 4
 114 533 110 568 105 580 c 1030
EndSplineSet
EndChar

StartChar: uni0E18
Encoding: 3608 3608 50
GlifName: uni0E_18
Width: 580
VWidth: 0
Flags: HW
HStem: -14 68<203.347 388.006> 555 67<176.873 390.632>
VStem: 64 92<442.716 529.878> 109 96<62.1829 297.286> 430 93<96.3209 241.57>
LayerCount: 2
Fore
SplineSet
155 270 m 4
 162 174 155 50 155 50 c 5
 192 30 243 20 310 20 c 4
 485 20 591 278 270 360 c 4
 -51 442 159 704 480 530 c 1028
EndSplineSet
EndChar

StartChar: uni0E19
Encoding: 3609 3609 51
GlifName: uni0E_19
Width: 660
VWidth: 0
Flags: HW
HStem: -27 59<478.065 534.082> 248 69<475 531.41> 588 11G<111.5 123.5 445.5 472.5>
VStem: 84 94<117 568.719> 387 80<34.4563 223.791> 391 110<320.332 579.118> 550 85<47.0879 232.283>
LayerCount: 2
Fore
SplineSet
110 570 m 5
 120 560 130 521 130 470 c 4
 130 175 130 35 130 10 c 1
 143 29 194 114 270 185 c 0
 327 239 398 285 480 285 c 0
 561 285 590 218 590 136 c 0
 590 40 538 5 490 5 c 0
 441 5 425 40 425 145 c 0
 425 232 436 359 455 565 c 1025
EndSplineSet
EndChar

StartChar: uni0E1A
Encoding: 3610 3610 52
GlifName: uni0E_1A_
Width: 710
VWidth: 0
Flags: HW
HStem: -26 72<218.891 483.639> 586 20G<132 144 552.5 583>
VStem: 106 98<65.4674 568.673> 511 98<72.4926 596.285>
LayerCount: 2
Fore
SplineSet
565 570 m 5
 558 385 560 203 560 140 c 4
 560 58 490 10 365 10 c 4
 233 10 155 30 155 100 c 4
 155 213 159 336 159 440 c 4
 159 510 151 557 130 575 c 1029
EndSplineSet
EndChar

StartChar: uni0E1B
Encoding: 3611 3611 53
GlifName: uni0E_1B_
Width: 725
VWidth: 0
Flags: HW
HStem: -26 72<218.78 491.267> 590 20G<132 144> 826 20G<562.5 593>
VStem: 106 98<65.2071 568.673> 521 98<76.3154 836.285>
LayerCount: 2
Fore
SplineSet
575 810 m 5
 568 625 570 203 570 140 c 4
 570 58 495 10 370 10 c 4
 238 10 155 30 155 100 c 4
 155 213 159 336 159 440 c 4
 159 510 151 557 130 575 c 1029
EndSplineSet
EndChar

StartChar: uni0E1C
Encoding: 3612 3612 54
GlifName: uni0E_1C_
Width: 750
VWidth: 0
Flags: HW
HStem: -14 27G<188.5 293.5 600 621> 544 70<216.696 306.098>
VStem: 64 94<155.613 460.414> 559 94<85.4322 596.718> 569 94<362.121 602.373>
LayerCount: 2
Fore
SplineSet
615 575 m 5
 607 524 605 400 605 355 c 4
 605 206 610 30 610 30 c 5
 575 59 466 201 380 300 c 5
 354 199 290 20 290 20 c 4
 151 20 110 185 110 295 c 4
 110 476 181 580 265 580 c 4
 293 580 318 570 335 550 c 1029
EndSplineSet
EndChar

StartChar: uni0E1D
Encoding: 3613 3613 55
GlifName: uni0E_1D_
Width: 760
VWidth: 0
Flags: HW
HStem: -14 27G<188.5 293.5 601 622> 544 70<216.696 306.098> 824 20G<608.5 634>
VStem: 64 94<155.613 460.414> 559 94<85.8 831.718> 569 94<597.121 837.373>
LayerCount: 2
Fore
SplineSet
615 810 m 5
 607 759 605 635 605 590 c 4
 605 441 610 30 610 30 c 5
 575 59 466 201 380 300 c 5
 354 199 290 20 290 20 c 4
 151 20 110 185 110 295 c 4
 110 476 181 580 265 580 c 4
 293 580 318 570 335 550 c 1029
EndSplineSet
EndChar

StartChar: uni0E1E
Encoding: 3614 3614 56
GlifName: uni0E_1E_
Width: 750
VWidth: 0
Flags: HW
HStem: -12 19G<122.5 143 581.5 601> 594 20G<108 120 610.5 638>
VStem: 104 88<189 292.963> 556 110<273.088 489.172> 574 92<295.097 607.681>
LayerCount: 2
Fore
SplineSet
620 580 m 5
 604 392 599 35 595 25 c 5
 555 85 383 480 363 510 c 5
 345 480 194 86 150 15 c 5
 150 303 121 542 105 580 c 1029
EndSplineSet
EndChar

StartChar: uni0E1F
Encoding: 3615 3615 57
GlifName: uni0E_1F_
Width: 760
VWidth: 0
Flags: HW
HStem: -12 19G<122.5 143 591.5 611> 594 20G<108 120> 824 20G<643.5 667.5>
VStem: 104 88<188 292.963> 563 87<20 52.2549> 604 93<533.847 837.988>
LayerCount: 2
Fore
SplineSet
650 810 m 5
 614 622 609 35 605 25 c 5
 565 85 388 480 368 510 c 5
 350 480 194 86 150 15 c 5
 150 303 121 542 105 580 c 1029
EndSplineSet
EndChar

StartChar: uni0E20
Encoding: 3616 3616 58
GlifName: uni0E_20
Width: 660
VWidth: 0
Flags: HW
HStem: -16 92<41.4082 127.626> 544 72<184.839 455.263>
VStem: 131 98<62 360.527> 465 98<-9.73438 435.754> 476 98<171.456 521.386>
LayerCount: 2
Fore
SplineSet
517 20 m 5
 515 62 514 104 514 145 c 4
 514 287 525 416 525 465 c 4
 525 547 458 580 382 580 c 4
 306 580 183 565 130 540 c 5
 150 391 180 223 180 130 c 4
 180 69 180 20 135 20 c 4
 120 20 101 29 75 40 c 1029
EndSplineSet
EndChar

StartChar: uni0E21
Encoding: 3617 3617 59
GlifName: uni0E_21
Width: 660
VWidth: 0
Flags: HW
HStem: -27 59<139.365 192.111> 243 64<132.641 200> 548 64<86.7095 186.996>
VStem: 25 85<59.1944 222.66> 200 90<32.9236 200 307 541.821> 476 90<111 303.932> 484 92<285.26 592.595>
LayerCount: 2
Fore
SplineSet
100 560 m 5
 100 560 133 580 170 580 c 4
 235 580 245 515 245 420 c 4
 245 70 242 5 180 5 c 4
 117 5 70 44 70 140 c 4
 70 221 119 275 190 275 c 4
 246 275 306 233 360 185 c 4
 448 108 520 10 520 10 c 5
 525 340 526 446 530 565 c 1029
EndSplineSet
EndChar

StartChar: uni0E22
Encoding: 3618 3618 60
GlifName: uni0E_22
Width: 640
VWidth: 0
Flags: HW
HStem: -26 72<261.816 390.295> 278 65<227.871 314> 546 68<155.288 288.836>
VStem: 44 92<388.661 527.273> 114 92<99.8356 252.977> 474 98<193.807 599.578>
LayerCount: 2
Fore
SplineSet
520 570 m 5
 522 531 523 487 523 443 c 4
 523 229 485 10 325 10 c 4
 234 10 160 87 160 170 c 0
 160 313 293 307 305 310 c 1
 248 315 90 318 90 450 c 0
 90 534 150 580 220 580 c 0
 264 580 300 560 315 550 c 1025
EndSplineSet
EndChar

StartChar: uni0E23
Encoding: 3619 3619 61
GlifName: uni0E_23
Width: 530
VWidth: 0
Flags: HW
HStem: -16 72<211.091 347.122> 548 72<144.028 360.021>
VStem: 31 95<421.931 523.059> 362 94<70.2694 191.537>
LayerCount: 2
Fore
SplineSet
440 530 m 4
 140 690 -78 458 230 320 c 4
 503 198 406 20 290 20 c 4
 244 20 197 34 160 65 c 1029
EndSplineSet
EndChar

StartChar: uni0E24
Encoding: 3620 3620 62
GlifName: uni0E_24
Width: 660
VWidth: 0
Flags: HW
HStem: -246 21G<498.5 511.5> -19 72<185.304 280.625> -2 68<215.403 321.711> 544 72<199.454 455.263>
VStem: 81 98<57.8308 368.587> 111 98<189.311 524.017> 465 98<-239.734 199.197> 476 98<171.013 521.386>
LayerCount: 2
Fore
SplineSet
275 30 m 5
 250 21 239 17 221 17 c 4
 150 17 130 59 130 120 c 4
 130 217 160 339 160 440 c 4
 160 479 149 520 135 535 c 5
 188 560 289 580 382 580 c 4
 458 580 525 547 525 465 c 4
 525 416 514 57 514 -85 c 4
 514 -126 515 -168 517 -210 c 1029
EndSplineSet
EndChar

StartChar: uni0E25
Encoding: 3621 3621 63
GlifName: uni0E_25
Width: 660
VWidth: 0
Flags: HW
HStem: -16 21G<142.5 155.5 455.5 462.5> 549 71<223.87 409.622>
VStem: 91 98<31.0583 232.645> 504 95<119.951 435.648>
LayerCount: 2
Fore
SplineSet
160 20 m 5
 160 20 140 103 140 184 c 4
 140 232 155 270 188 270 c 4
 247 270 285 236 342 173 c 4
 401 109 451 40 466 30 c 5
 494 35 550 155 550 290 c 4
 550 667 210 637 90 450 c 1028
EndSplineSet
EndChar

StartChar: uni0E26
Encoding: 3622 3622 64
GlifName: uni0E_26
Width: 660
VWidth: 0
Flags: HW
HStem: -246 21G<498.5 511.5> -16 92<41.4082 127.626> 544 72<184.839 455.263>
VStem: 131 98<62 360.527> 465 98<-239.734 199.197> 476 98<171.013 521.386>
LayerCount: 2
Fore
SplineSet
517 -210 m 5
 515 -168 514 -126 514 -85 c 4
 514 57 525 416 525 465 c 4
 525 547 458 580 382 580 c 4
 306 580 183 565 130 540 c 5
 150 391 180 223 180 130 c 4
 180 69 180 20 135 20 c 4
 120 20 101 29 75 40 c 1029
EndSplineSet
EndChar

StartChar: uni0E27
Encoding: 3623 3623 65
GlifName: uni0E_27
Width: 570
VWidth: 0
Flags: HW
HStem: -15 71<265.719 339.869> 552 72<194.485 335.121>
VStem: 21 97<400.902 477.363> 168 97<56.5993 136.329> 411 98<151.965 457.007>
LayerCount: 2
Fore
SplineSet
70 430 m 5
 136 635 460 681 460 315 c 0
 460 -39 181 -29 220 110 c 1025
EndSplineSet
EndChar

StartChar: uni0E28
Encoding: 3624 3624 66
GlifName: uni0E_28
Width: 660
VWidth: 0
Flags: HW
HStem: -4 21G<167.5 187 463.5 490> 551 67<234.296 418.094>
VStem: 59 93<204.955 464.09> 508 92<190.631 450.637>
LayerCount: 2
Fore
SplineSet
600 630 m 5
 422 478 260 206 185 20 c 1
 179 31 130 172 110 300 c 0
 51 673 605 686 550 300 c 0
 533 179 485 30 485 30 c 1025
EndSplineSet
EndChar

StartChar: uni0E29
Encoding: 3625 3625 67
GlifName: uni0E_29
Width: 750
VWidth: 0
Flags: HW
HStem: -24 68<218.975 493.205> 391 58<394.239 508.815> 561 58<389.476 489.297> 589 20G<130 142>
VStem: 109 92<65.5339 569.672> 312 73<458.257 556.816> 524 92<73.5431 425>
LayerCount: 2
Fore
SplineSet
672 610 m 4
 588 498 523.4453125 420 440 420 c 4
 328 420 316 590 440 590 c 4
 520 590 575 509 575 422 c 4
 575 308.995575308 570 175 570 140 c 0
 570 58 495 10 370 10 c 0
 238 10 155 30 155 100 c 0
 155 213 159 336 159 440 c 0
 159 510 151 557 130 575 c 1025
EndSplineSet
EndChar

StartChar: uni0E2A
Encoding: 3626 3626 68
GlifName: uni0E_2A_
Width: 670
VWidth: 0
Flags: HW
HStem: -14 31G<144 156.5 457 463.5> 235 69<187.708 243.137> 370 69<159.443 398.009> 548 68<178.11 393.793>
VStem: 54 92<465.948 517.825> 94 92<19.6286 234.753> 504 92<120.369 425.781> 534 92<559.94 658.307>
LayerCount: 2
Fore
SplineSet
160 20 m 5
 160 20 140 103 140 184 c 4
 140 232 155 270 188 270 c 4
 247 270 285 236 342 173 c 4
 401 109 451 40 466 30 c 5
 494 35 550 155 550 290 c 4
 550 696 100 596 100 480 c 4
 100 367 528 354 580 630 c 1028
EndSplineSet
EndChar

StartChar: uni0E2B
Encoding: 3627 3627 69
GlifName: uni0E_2B_
Width: 680
VWidth: 0
Flags: HW
HStem: -24 33G<148.5 246.5 587.5 600> 553 59<411.574 516.807> 579 20G<149.5 173.5>
VStem: 84 92<77.905 569.276> 320 85<368.752 547.933> 525 85<389.982 547.018>
LayerCount: 2
Fore
SplineSet
605 20 m 6
 529 114 467 205 425 285 c 4
 384 363 365 429 365 480 c 4
 365 544 397 580 475 580 c 4
 540 580 565 541 565 490 c 4
 565 426 525 342 470 255 c 4
 386 124 270 10 210 10 c 0
 155 10 130 144 130 300 c 0
 130 394 140 495 155 565 c 1025
EndSplineSet
EndChar

StartChar: uni0E2D
Encoding: 3629 3629 70
GlifName: uni0E_2D_
Width: 640
VWidth: 0
Flags: HW
HStem: -19 72<216.596 388.906> 215 66<192.407 288.479> 230 72<161.125 241.626> 549 72<221.577 381.294>
VStem: 61 98<108.262 229.343> 481 98<159.177 433.292>
LayerCount: 2
Fore
SplineSet
100 450 m 5
 214 659 530 637 530 295 c 0
 530 -71 110 -39 110 180 c 0
 110 247 154 292 250 250 c 1024
EndSplineSet
EndChar

StartChar: uni0E2E
Encoding: 3630 3630 71
GlifName: uni0E_2E_
Width: 650
VWidth: 0
Flags: HW
HStem: -18 68<218.02 386.751> 233 66<164.41 265.142> 363 67<167.021 393.724> 552 68<176.398 377.456>
VStem: 54 92<450.806 522.876> 64 92<109.437 231.158> 484 92<161.017 414.648> 534 92<557.513 658.307>
LayerCount: 2
Fore
SplineSet
580 630 m 4
 528 346 100 354 100 480 c 4
 100 606 530 692 530 300 c 0
 530 -74 110 -39 110 180 c 0
 110 247 154 292 250 250 c 1024
EndSplineSet
EndChar

StartChar: uni0E2F
Encoding: 3631 3631 72
GlifName: uni0E_2F_
Width: 530
VWidth: 0
Flags: HW
HStem: -16 72<157.594 313.277> 394 72<138.155 272.541> 586 20G<79.5 105 402.5 424>
VStem: 31 104<468.33 596.216> 351 93<90.042 466>
LayerCount: 2
Fore
SplineSet
85 570 m 6
 83 561 80 540 80 530 c 4
 80 483 100 430 165 430 c 4
 294 430 348 498 395 570 c 5
 395 509 395 459 395 418 c 4
 395 276 398 233 400 160 c 4
 403 61 303 28 202 20 c 1029
EndSplineSet
EndChar

StartChar: uni0E2C
Encoding: 3628 3628 73
GlifName: uni0E_2C_000000000000001
Width: 770
VWidth: 0
Flags: HW
HStem: -18 26G<142.5 162 587.5 606.5> 391 58<451.787 568.949> 561 58<444.769 552.957>
VStem: 104 91<133 292.963> 367 73<460.031 556.816> 587 84<146.889 423>
LayerCount: 2
Fore
SplineSet
105 580 m 1
 121 542 150 303 150 15 c 1
 194 76 336 270 363 300 c 1
 393 270 555 75 595 25 c 1
 599 35 630 239 630 422 c 4
 630 509 575 590 495 590 c 4
 371 590 383 420 495 420 c 4
 578 420 643 498 727 610 c 1028
EndSplineSet
EndChar

StartChar: uni0E31
Encoding: 3633 3633 74
GlifName: uni0E_31
Width: 0
VWidth: 0
Flags: H
HStem: 717 65<-299.141 -160.502>
VStem: -391 88<788.393 883.42>
LayerCount: 2
Fore
SplineSet
20 930 m 4
 -136 688 -393 715 -340 860 c 1028
EndSplineSet
EndChar

StartChar: uni0E34
Encoding: 3636 3636 75
GlifName: uni0E_34
Width: 0
VWidth: 0
Flags: HW
HStem: 871 58<-444.219 -298.288>
VStem: -534 88<803.567 866.554>
LayerCount: 2
Fore
SplineSet
-150 710 m 5
 -167 757 -226 900 -385 900 c 4
 -446 900 -490 865 -490 835 c 0
 -490 805 -470 790 -410 775 c 0
 -354 761 -262 748 -140 730 c 1025
EndSplineSet
EndChar

StartChar: uni0E35
Encoding: 3637 3637 76
GlifName: uni0E_35
Width: 0
VWidth: 0
Flags: HW
HStem: 861 58<-448.973 -303.056>
VStem: -530 80<791.537 856.533> -189 83<759.541 934.445> -175 65<757 914.136>
LayerCount: 2
Fore
SplineSet
-150 910 m 4
 -146 873 -149 784 -150 720 c 5
 -261 734 -344 745 -400 760 c 4
 -460 776 -490 795 -490 825 c 4
 -490 855 -456 890 -395 890 c 4
 -255 890 -203 772 -195 760 c 1029
EndSplineSet
EndChar

StartChar: uni0E36
Encoding: 3638 3638 77
GlifName: uni0E_36
Width: 0
VWidth: 0
Flags: HW
HStem: 689 44<-200.672 -146.857> 861 58<-454.871 -337.25> 863 39<-193.831 -147.911>
VStem: -544 88<781.823 859.019> -134 60<748.432 857.686>
LayerCount: 2
Fore
SplineSet
-231 809 m 5
 -231 846 -211 880 -170 880 c 4
 -129 880 -109 843 -109 804 c 4
 -109 763 -134 709 -190 715 c 4
 -278 724 -366 739 -417 750 c 0
 -480 764 -500 793 -500 825 c 0
 -500 855 -466 890 -405 890 c 0
 -295 890 -242 781 -230 764 c 1025
EndSplineSet
EndChar

StartChar: uni0E37
Encoding: 3639 3639 78
GlifName: uni0E_37
Width: 0
VWidth: 0
Flags: HW
HStem: 861 58<-464.796 -347.91>
VStem: -554 88<796.008 859.751> -280 70<810.688 939.104> -159 70<779.572 929.706> -148 58<747 915.149>
LayerCount: 2
Fore
SplineSet
-245 920 m 4
 -243 862 -243 808 -245 750 c 1028
-125 910 m 4
 -121 873 -124 784 -125 720 c 5
 -236 734 -364 745 -420 760 c 4
 -480 776 -510 795 -510 825 c 0
 -510 855 -481 890 -420 890 c 0
 -295 890 -253 762 -245 750 c 1029
EndSplineSet
EndChar

StartChar: uni0E38
Encoding: 3640 3640 79
GlifName: uni0E_38
Width: 0
VWidth: 0
Flags: H
HStem: -172 84<-261.847 -187.288>
VStem: -185 91<-316.76 -152.378>
LayerCount: 2
Fore
SplineSet
-240 -140 m 5
 -225 -131 -198 -120 -180 -120 c 4
 -157 -120 -140 -133 -140 -160 c 4
 -140 -211 -143 -252 -138 -290 c 1029
EndSplineSet
EndChar

StartChar: uni0E39
Encoding: 3641 3641 80
GlifName: uni0E_39
Width: 0
VWidth: 0
Flags: H
HStem: -154 58<-400.194 -352>
VStem: -183 78<-185.422 -100.175>
LayerCount: 2
Fore
SplineSet
-145 -125 m 5
 -156 -152 -172 -193 -188 -222 c 4
 -208 -258 -232 -297 -241 -303 c 5
 -253 -294 -272 -256 -284 -228 c 4
 -293 -207 -303 -168 -310 -150 c 4
 -318 -129 -332 -125 -362 -125 c 1030
EndSplineSet
EndChar

StartChar: uni0E3A
Encoding: 3642 3642 81
GlifName: uni0E_3A_
Width: 0
VWidth: 0
Flags: H
HStem: -231 131<-208.2 -91.5721>
VStem: -229 158<-209.154 -120.84>
LayerCount: 2
Fore
SplineSet
-132 -140 m 6
 -128 -145 -120 -153 -120 -164 c 4
 -120 -182 -131 -195 -152 -195 c 4
 -168 -195 -180 -186 -180 -167 c 4
 -180 -152 -168 -136 -148 -136 c 5
 -132 -140 l 6
EndSplineSet
EndChar

StartChar: uni0E46
Encoding: 3654 3654 82
GlifName: uni0E_46
Width: 630
VWidth: 0
Flags: HW
HStem: -244 21G<473 485> 216 68<183.582 272.733> 536 68<182.64 248.392>
VStem: 54 92<323.663 499.272> 434 92<-227.524 387.409> 444 92<-237.8 2.78791>
LayerCount: 2
Fore
SplineSet
230 250 m 5
 156 250 100 312 100 410 c 4
 100 467 140 570 230 570 c 4
 325 570 308 430 308 430 c 5
 372 473 448 531 490 560 c 5
 490 560 480 159 480 10 c 4
 480 -35 482 -159 490 -210 c 1029
EndSplineSet
EndChar

StartChar: uni0E47
Encoding: 3655 3655 83
GlifName: uni0E_47
Width: 0
VWidth: 0
Flags: H
HStem: 691 58<-371.233 -268.167> 796 20G<-239 -220.5> 861 58<-374.881 -93.4219>
VStem: -460 80<757.827 857.89>
LayerCount: 2
Fore
SplineSet
-130 720 m 5
 -130 720 -186 752 -225 790 c 5
 -225 769 -254 720 -320 720 c 4
 -377 720 -420 748 -420 805 c 4
 -420 864 -377 890 -320 890 c 4
 -259 890 -212 893 -190 895 c 4
 -140 899 -109 904 -100 910 c 1029
EndSplineSet
EndChar

StartChar: uni0E48
Encoding: 3656 3656 84
GlifName: uni0E_48
Width: 0
VWidth: 0
Flags: HW
HStem: 985 222<-191.988 -131.376>
VStem: -203 86<1003.78 1188.52>
LayerCount: 2
Fore
SplineSet
-160 1010 m 5
 -157 1015 -152 1162 -157 1180 c 0
 -167 1180 l 0
 -162 1162 -161 1016 -160 1010 c 5
EndSplineSet
EndChar

StartChar: uni0E49
Encoding: 3657 3657 85
GlifName: uni0E_49
Width: 0
VWidth: 0
Flags: HW
HStem: 1156 51<-301.574 -257.785>
VStem: -247 69<1036.26 1145.47>
LayerCount: 2
Fore
SplineSet
-20 1180 m 5
 -52 1119 -132 1058 -224 1020 c 5
 -218 1037 -210 1069 -210 1095 c 4
 -210 1138 -231 1163 -272 1180 c 1029
EndSplineSet
EndChar

StartChar: uni0E4A
Encoding: 3658 3658 86
GlifName: uni0E_4A_
Width: 0
VWidth: 0
Flags: H
HStem: 980 50<-285.964 -233.151> 1185 20G<-269.5 -246 -138.5 -130>
VStem: -365 70<1033.74 1154.34> -130 61<1074.5 1148.95>
LayerCount: 2
Fore
SplineSet
-267 1005 m 5
 -295 1005 -330 1047 -330 1095 c 4
 -330 1135 -306 1180 -270 1180 c 4
 -229 1180 -213 1147 -207 1120 c 5
 -191 1135 -140 1180 -140 1180 c 5
 -108 1165 -95 1121 -95 1085 c 4
 -95 1062 -106 1027 -120 1010 c 5
 -57 1032 -9 1111 0 1170 c 1029
EndSplineSet
EndChar

StartChar: uni0E4B
Encoding: 3659 3659 87
GlifName: uni0E_4B_
Width: 0
VWidth: 0
Flags: HW
HStem: 1073 54<-305.804 -195.893 -121 -41.0945> 1197 20G<-168.5 -144.5>
VStem: -203 82<1120 1199.99> -193 72<1003.57 1076>
LayerCount: 2
Fore
SplineSet
-160 1010 m 5
 -157 1015 -152 1172 -157 1190 c 4
 -167 1190 l 4
 -162 1172 -161 1016 -160 1010 c 5
-270 1100 m 4
 -188 1098 -126 1100 -50 1105 c 1028
EndSplineSet
EndChar

StartChar: uni0E4C
Encoding: 3660 3660 88
GlifName: uni0E_4C_
Width: 0
VWidth: 0
Flags: HW
HStem: 978 155<-252.098 -191.463> 1202 20G<-45 -19.5>
VStem: -277 87<1005.02 1082.05>
LayerCount: 2
Fore
SplineSet
-220 1010 m 5
 -247 1059 -231 1091 -195 1105 c 4
 -163 1117 -118 1130 -85 1145 c 4
 -63 1155 -46 1172 -40 1190 c 1029
EndSplineSet
EndChar

StartChar: uni0E4E
Encoding: 3662 3662 89
GlifName: uni0E_4E_
Width: 0
VWidth: 0
Flags: H
HStem: 661 58<-318.379 -201.806> 805 58<-276.417 -186.382> 930 56<-234.734 -136.427> 943 56<-285.559 -154.837>
VStem: -400 75<729.015 798.624> -363 75<878.058 937.264>
LayerCount: 2
Fore
SplineSet
-240 690 m 1
 -330 690 -360 722 -360 765 c 0
 -360 834 -266 834 -221 834 c 5
 -363 848 -365 1017 -170 959 c 1029
EndSplineSet
EndChar

StartChar: uni0E45
Encoding: 3653 3653 90
GlifName: uni0E_45
Width: 500
VWidth: 0
Flags: HW
HStem: -245 21G<321 354.5> 545 71<182.704 295.182>
VStem: 291 98<-238.516 128.875> 312 98<147.771 529.652>
LayerCount: 2
Fore
SplineSet
70 435 m 0
 128 594 385 661 365 435 c 0
 349 259 337 -82 340 -210 c 1029
EndSplineSet
EndChar

StartChar: uni0E0D.rd
Encoding: 63642 63642 91
GlifName: uni0E_0D_.rd
Width: 965
VWidth: 0
Flags: HW
HStem: -21 72<189.781 280.625 600.144 759.481> 544 72<191.472 455.263> 585 20G<806.5 839>
VStem: 81 98<57.8308 415.966> 101 98<143.17 523.843> 471 98<81.1507 523.934> 771 98<66.3469 124.765 282.902 598.22> 781 98<72.4912 425.41>
LayerCount: 2
Fore
SplineSet
820 570 m 1
 820 399 829 295 830 130 c 0
 830 55 751 15 670 15 c 0
 595 15 519 59 520 130 c 0
 521 250 525 416 525 465 c 0
 525 547 458 580 382 580 c 0
 289 580 183 560 130 535 c 5
 142 520 150 479 150 440 c 4
 150 339 130 217 130 120 c 0
 130 59 150 17 221 17 c 0
 239 17 250 21 275 30 c 1025
EndSplineSet
EndChar

StartChar: uni0E10.rd
Encoding: 63646 63646 94
GlifName: uni0E_10.rd
Width: 600
VWidth: 0
Flags: HW
HStem: -9 21G<306.5 323> 215 67<178 205.666> 366 64<123.389 309.985> 558 64<161.458 347.577>
VStem: 30 90<435.803 520.457> 430 90<205.034 434.491>
LayerCount: 2
Fore
SplineSet
520 630 m 4
 487 424 60 321 60 465 c 4
 60 614 460 685 460 355 c 4
 460 156 335 46 310 30 c 1
 302 49 247 320 120 230 c 1024
EndSplineSet
EndChar

StartChar: uni0E30
Encoding: 3632 3632 95
GlifName: uni0E_30
Width: 540
VWidth: 0
Flags: HW
HStem: 60 72<151.529 272.384> 360 71<163.467 267.195>
VStem: 51 98<134.542 227.099> 60 98<433.043 534.504>
LayerCount: 2
Fore
SplineSet
410 510 m 0
 178 314 84 408 115 510 c 1024
410 202 m 4
 186 26 74 100 105 202 c 1028
EndSplineSet
EndChar

StartChar: uni0E51
Encoding: 3665 3665 96
GlifName: uni0E_51
Width: 720
VWidth: 0
Flags: HW
HStem: -36 69<293.574 394.434> 144 72<186.467 297.313> 544 72<256.545 451.049>
VStem: 61 98<246.747 438.4> 311 98<230.15 323.22> 561 98<190.537 424.859>
CounterMasks: 1 1c
LayerCount: 2
Fore
SplineSet
360 295 m 5
 360 219 299 180 235 180 c 4
 177 180 110 221 110 321 c 4
 110 466 206 580 360 580 c 4
 513 580 610 466 610 309 c 4
 610 142 482 41 340 0 c 1029
EndSplineSet
EndChar

StartChar: uni0E5B
Encoding: 3675 3675 97
GlifName: uni0E_5B_
Width: 1230
VWidth: 0
Flags: HW
HStem: 1 58<274.518 490.766> 191 58<306.806 395.481> 258 54<1006 1155.48> 531 58<244.964 389.684>
VStem: 80 80<184.612 428.418> 430 80<284.812 487.377> 633 67<504 521.031>
LayerCount: 2
Fore
SplineSet
1120 288 m 5
 985 285 l 5
 910 408 l 5
 807 150 l 5
 807 150 709 426 665 510 c 5
 669 479 671 447 671 415 c 4
 671 331 657 250 630 200 c 4
 574 96 508 30 360 30 c 0
 229 30 120 132 120 303 c 0
 120 447 205 560 330 560 c 0
 425 560 470 492 470 370 c 0
 470 284 402 220 345 220 c 1025
EndSplineSet
EndChar

StartChar: uni0E5A
Encoding: 3674 3674 98
GlifName: uni0E_5A_
Width: 680
VWidth: 0
Flags: HW
HStem: -14 68<139.767 292.69> 396 68<137.41 254.493> 584 19G<79.5 103.5 537.5 568>
VStem: 34 98<468.876 595.51> 329 92<86.916 465> 510 92<12.8977 599.548>
LayerCount: 2
Fore
SplineSet
85 570 m 6
 83 561 80 540 80 530 c 4
 80 483 100 430 165 430 c 4
 274 430 328 498 375 570 c 5
 375 509 375 459 375 418 c 4
 375 276 378 233 380 160 c 4
 383 61 283 28 182 20 c 1029
550 570 m 28
 552 363 558 247 555 40 c 1052
EndSplineSet
EndChar

StartChar: uni0E53
Encoding: 3667 3667 99
GlifName: uni0E_53
Width: 720
VWidth: 0
Flags: HW
HStem: -21 72<221.986 309.717> 596 20G<200.5 275.5 487 564>
VStem: 61 98<135.375 458.729> 561 98<132.38 488.442>
LayerCount: 2
Fore
SplineSet
338 51 m 5
 322 28 295 15 265 15 c 4
 181 15 110 119 110 300 c 4
 110 410 151 580 260 580 c 5
 287 542 354 300 370 270 c 5
 389 296 466 541 490 580 c 5
 571 580 610 459 610 328 c 4
 610 171 550 20 550 20 c 1029
EndSplineSet
EndChar

StartChar: uni0E59
Encoding: 3673 3673 100
GlifName: uni0E_59
Width: 720
VWidth: 0
Flags: HW
HStem: -26 72<233.495 495.467> 281 49<507.842 530> 314 66<205.918 286> 786 20G<631.5 659>
VStem: 61 98<110.43 269.088> 205 98<443.854 536.951> 531 98<80.2657 158.22> 591 98<697.518 798.547>
LayerCount: 2
Fore
SplineSet
580 130 m 5
 580 42 461 10 350 10 c 4
 228 10 110 62 110 180 c 4
 110 280 180 350 280 350 c 4
 380 350 508 316 537 311 c 5
 503 331 254 385 254 489 c 4
 254 590 383 583 470 600 c 4
 549 615 625 666 640 770 c 1029
EndSplineSet
EndChar

StartChar: uni0E58
Encoding: 3672 3672 101
GlifName: uni0E_58
Width: 720
VWidth: 0
Flags: HW
HStem: 0 21G<241 252.5> 4 72<465.704 551.436> 786 20G<645.5 658.5>
VStem: 61 98<169.096 413.787> 369 76<95.4729 124> 581 98<106.384 283.4> 591 98<652.77 798.288>
LayerCount: 2
Fore
SplineSet
605 290 m 5
 621 265 630 233 630 190 c 4
 630 133 591 40 500 40 c 4
 431 40 396 97 396 180 c 4
 396 197 399 213 402 227 c 5
 355 166 302 81 260 35 c 5
 153 73 110 197 110 290 c 4
 110 408 173 533 320 550 c 4
 372 556 475 560 535 580 c 4
 611 605 644 688 640 770 c 1029
EndSplineSet
EndChar

StartChar: uni0E56
Encoding: 3670 3670 102
GlifName: uni0E_56
Width: 720
VWidth: 0
Flags: HW
HStem: -16 72<277.488 463.971> 255 71<233.999 304.116> 544 72<240.104 450.008> 785 20G<84 96.5>
VStem: 31 97<709.455 798.526> 123 98<111.305 247.21> 561 98<175.95 425.018>
LayerCount: 2
Fore
SplineSet
80 770 m 6
 115 666 157 547 165 520 c 5
 201 538 266 580 360 580 c 4
 533 580 610 440 610 310 c 4
 610 158 525 20 370 20 c 4
 231 20 172 105 172 178 c 4
 172 239 208 281 259 290 c 1029
EndSplineSet
EndChar

StartChar: uni0E54
Encoding: 3668 3668 103
GlifName: uni0E_54
Width: 720
VWidth: 0
Flags: HW
HStem: 0 73<267.939 489 610.02 657> 786 20G<645.5 658.5>
VStem: 61 98<183.794 413.787> 400 98<168.136 304.03> 591 98<652.77 798.288>
LayerCount: 2
Fore
SplineSet
488 325 m 5
 456 299 449 267 449 230 c 4
 449 149 534 78 630 44 c 5
 486 35 433 34 328 40 c 4
 181 48 110 173 110 290 c 4
 110 408 173 533 320 550 c 4
 372 556 475 560 535 580 c 4
 611 605 644 688 640 770 c 1029
EndSplineSet
EndChar

StartChar: uni0E52
Encoding: 3666 3666 104
GlifName: uni0E_52
Width: 810
VWidth: 0
Flags: HW
HStem: 14 68<193.319 634> 216 68<378.582 467.733> 536 68<375.116 453.523> 784 20G<139.5 151.5>
VStem: 89 92<492.279 798.212> 101 92<75 601.884> 249 92<323.663 496.773> 463 75<492 527.219> 638 93<76 479>
LayerCount: 2
Fore
SplineSet
425 250 m 5
 351 250 295 312 295 410 c 4
 295 467 334 570 425 570 c 4
 482 570 509 523 509 477 c 4
 509 460 506 444 503 430 c 5
 567 473 643 526 685 555 c 5
 685 555 680 189 680 40 c 5
 508 48 379 54 145 39 c 5
 145 39 153 617 135 770 c 1029
EndSplineSet
EndChar

StartChar: uni0E55
Encoding: 3669 3669 105
GlifName: uni0E_55
Width: 720
VWidth: 0
Flags: HW
HStem: 4 68<269.094 489 610.02 657> 506 68<460 524.552> 701 63<318.33 383.191> 784 20G<646.5 658.5>
VStem: 61 98<188.932 397.608> 224 87<590.39 697.283> 394 87<582.306 694.211> 400 98<167.896 304.03> 594 93<649.977 797.286>
LayerCount: 2
Fore
SplineSet
488 325 m 1
 456 299 449 267 449 230 c 0
 449 149 534 78 630 44 c 1
 546 39 492 36 442 36 c 0
 406 36 372 38 328 40 c 0
 187 48 110 173 110 290 c 4
 110 557 435 487 435 635 c 4
 435 714 385 730 355 730 c 4
 304 730 270 690 270 635 c 4
 270 551 366 540 440 540 c 4
 594 540 646 682 640 770 c 1029
EndSplineSet
EndChar

StartChar: uni0E4F
Encoding: 3663 3663 106
GlifName: uni0E_4F_
Width: 750
VWidth: 0
Flags: HW
HStem: 1 58<273.886 483.527> 199 202<303.122 390.811 391.234 448.967> 531 58<264.87 466.855>
VStem: 80 80<177.066 420.777> 267 220<234.794 365.256> 590 80<172.877 410.55>
LayerCount: 2
Fore
SplineSet
372 380 m 6
 323 380 297 338 297 295 c 4
 297 248 338 220 372 220 c 4
 415 220 457 248 457 290 c 4
 457 330 445 363 402 380 c 1029
511 525 m 1
 587 480 630 394 630 297 c 0
 630 136 523 30 372 30 c 0
 223 30 120 132 120 303 c 0
 120 447 223 560 375 560 c 0
 406 560 434 557 459 549 c 1026
EndSplineSet
EndChar

StartChar: uni0E50
Encoding: 3664 3664 107
GlifName: uni0E_50
Width: 720
VWidth: 0
Flags: HW
HStem: -26 72<274.054 453.858> 544 72<264.475 447.058>
VStem: 61 98<173.676 422.515> 561 98<165.416 418.385>
LayerCount: 2
Fore
SplineSet
496 545 m 5
 572 500 610 394 610 297 c 4
 610 136 508 10 357 10 c 4
 208 10 110 132 110 303 c 4
 110 447 208 580 360 580 c 4
 391 580 419 577 444 569 c 1030
EndSplineSet
EndChar

StartChar: uni0E57
Encoding: 3671 3671 108
GlifName: uni0E_57
Width: 840
VWidth: 0
Flags: HW
HStem: -21 72<221.986 309.717> 596 20G<200.5 275.5 487 564>
VStem: 61 98<135.375 458.729> 561 88<139.429 488.442> 716 93<319.485 630.156>
LayerCount: 2
Fore
SplineSet
338 51 m 6
 322 28 295 15 265 15 c 4
 181 15 110 119 110 300 c 4
 110 410 151 580 260 580 c 5
 287 542 354 300 370 270 c 5
 389 296 466 541 490 580 c 5
 571 580 610 459 610 328 c 4
 610 171 594 85 580 20 c 5
 627 43 760 105 760 600 c 1029
EndSplineSet
EndChar

StartChar: quotedbl
Encoding: 34 34 135
GlifName: quotedbl
Width: 510
VWidth: 0
Flags: HW
HStem: 548 290 819 20G<347 378.5>
VStem: 107 99<558.996 832.861> 304 99<581.009 834.861>
LayerCount: 2
Fore
SplineSet
344 809 m 5
 363 810 l 5
 362 723 357 616 352 585 c 5
 348 624 349 722 344 809 c 5
147 807 m 5
 166 808 l 5
 165 721 164 611 159 580 c 5
 155 619 152 720 147 807 c 5
EndSplineSet
EndChar

StartChar: numbersign
Encoding: 35 35 136
GlifName: numbersign
Width: 720
VWidth: 0
Flags: HW
HStem: -29 31G<134.5 154.5 404.5 424.5> 236 58<21.1999 160 250 428 517 658.194> 516 58<61.1999 214 301 482 570 698.194> 809 20G<294.5 315> 819 20G<564.5 585>
VStem: 261 78<644.375 825.612> 531 78<650.943 835.612>
LayerCount: 2
Fore
SplineSet
60 270 m 4
 277 263 403 264 620 265 c 1028
100 550 m 4
 317 543 443 544 660 545 c 1028
570 810 m 4
 521 503 485 317 420 10 c 1028
300 800 m 4
 251 493 215 307 150 0 c 1028
EndSplineSet
EndChar

StartChar: dollar
Encoding: 36 36 137
GlifName: dollar
Width: 720
VWidth: 0
Flags: HW
HStem: -20 83<258.359 323> 744 78<263.083 321 396 460.427>
VStem: 70 109<142.936 187.748 538.02 670.239> 318 75<68.2874 350 474 733.554> 323 74<-124.9 -19.0383 63 328.378 477.938 738 822 923.688> 504 110<594.958 703.511> 565 109<126.374 273.929>
LayerCount: 2
Fore
SplineSet
360 900 m 4
 355 507 351 293 365 -100 c 1052
EndSplineSet
Refer: 152 83 N 1 0 0 1 10 0 2
EndChar

StartChar: percent
Encoding: 37 37 138
GlifName: percent
Width: 780
VWidth: 0
Flags: HW
HStem: -14 58<534.596 613.398> 369 57<182.989 249.271 525.091 606.739> 757 57<165.091 246.739>
VStem: 50 80<483.383 716.397> 290 80<470.229 696.405> 410 80<95.3829 328.397> 650 80<82.2295 308.405>
LayerCount: 2
Fore
SplineSet
645 342 m 4
 675 316 690 263 690 212 c 4
 690 -66 450 -32 450 202 c 4
 450 406 586 436 650 356 c 1028
285 730 m 4
 315 704 330 651 330 600 c 4
 330 322 90 356 90 590 c 4
 90 794 226 824 290 744 c 1028
670 765 m 4
 508 544 271 229 110 35 c 1028
EndSplineSet
EndChar

StartChar: ampersand
Encoding: 38 38 139
GlifName: ampersand
Width: 800
VWidth: 0
Flags: HW
HStem: -29 78<219.5 417.689> 734 72<323.482 433.378>
VStem: 66 108<93.4772 237.488> 202 104<513.311 719.761> 450 98<564.255 718.069> 596 109<271.823 389.25>
LayerCount: 2
Fore
SplineSet
650 360 m 5
 614 195 513 10 310 10 c 4
 191 10 120 72 120 160 c 4
 120 262 246 345 370 440 c 4
 528 561 552 770 380 770 c 0
 212 770 226 541 340 410 c 0
 429 308 588 126 710 10 c 1025
EndSplineSet
EndChar

StartChar: quotesingle
Encoding: 39 39 140
GlifName: quotesingle
Width: 330
VWidth: 0
Flags: HW
HStem: 544 298<121.562 203.378>
VStem: 110 109<559.9 836.81>
LayerCount: 2
Fore
SplineSet
154 809 m 5
 175 810 l 5
 174 723 170 611 165 580 c 1
 161 619 159 722 154 809 c 5
EndSplineSet
EndChar

StartChar: parenleft
Encoding: 40 40 141
GlifName: parenleft
Width: 360
VWidth: 0
Flags: HW
VStem: 55 90<186.137 628.347>
LayerCount: 2
Fore
SplineSet
240 -80 m 5
 188 -22 100 159 100 420 c 4
 100 618 155 764 240 860 c 1029
EndSplineSet
EndChar

StartChar: parenright
Encoding: 41 41 142
GlifName: parenright
Width: 360
VWidth: 0
Flags: HW
VStem: 215 90<151.653 593.863>
LayerCount: 2
Fore
SplineSet
120 860 m 5
 172 802 260 621 260 360 c 4
 260 162 205 16 120 -80 c 1029
EndSplineSet
EndChar

StartChar: asterisk
Encoding: 42 42 143
GlifName: asterisk
Width: 600
VWidth: 0
Flags: HW
HStem: 691 54<93.4255 154.076> 829 20G<300 310>
VStem: 256 80<675.295 845.126> 265 80<395.043 568.611>
LayerCount: 2
Fore
SplineSet
124 716 m 4
 181 689 242 657 302 623 c 4
 362 589 421 556 476 524 c 1028
471 724 m 4
 419 688 361 652 302 617 c 4
 243 582 184 548 129 516 c 1028
295 820 m 4
 300 757 302 689 303 620 c 4
 304 551 305 483 305 420 c 1028
EndSplineSet
EndChar

StartChar: plus
Encoding: 43 43 144
GlifName: plus
Width: 600
VWidth: 0
Flags: HW
HStem: 310 70<82.8322 257 349 517.563>
VStem: 260 90<150.151 300.218 375.06 528.696>
LayerCount: 2
Fore
SplineSet
295 500 m 4
 303 411 304 303 305 180 c 1028
125 345 m 0
 213 337 336 335 475 340 c 1024
EndSplineSet
EndChar

StartChar: hyphen
Encoding: 45 45 145
GlifName: hyphen
Width: 600
VWidth: 0
Flags: HW
HStem: 301 80<79.9924 517.039>
LayerCount: 2
Fore
SplineSet
125 345 m 4
 213 337 336 335 475 340 c 1028
EndSplineSet
EndChar

StartChar: slash
Encoding: 47 47 146
GlifName: slash
Width: 480
VWidth: 0
Flags: HW
HStem: -29 21G<73 83> 808 20G<396 418>
VStem: 41 76<-26.2118 42.9601>
LayerCount: 2
Fore
SplineSet
400 800 m 4
 309 524 206 264 80 0 c 1028
EndSplineSet
EndChar

StartChar: zero
Encoding: 48 48 147
GlifName: zero
Width: 720
VWidth: 0
Flags: HW
HStem: -24 80<310.077 439.163> 742 79<282.739 430.926>
VStem: 66 108<230.554 580.991> 546 108<215.506 555.262>
LayerCount: 2
Fore
SplineSet
510 670 m 4
 570 618 600 512 600 410 c 4
 600 -145 120 -79 120 390 c 4
 120 798 393 861 520 700 c 1028
EndSplineSet
EndChar

StartChar: one
Encoding: 49 49 148
GlifName: one
Width: 720
VWidth: 0
Flags: HW
HStem: -19 78<132.289 369.125> -9 76<277.453 373 479.953 678.93> 591 73<130.336 219.047> 792 20G<434 456.5>
VStem: 364 108<83.3049 676>
LayerCount: 2
Fore
SplineSet
180 630 m 5
 262 663 353 704 425 770 c 5
 414 467 417 341 425 90 c 4
 427 24 568 40 630 30 c 5
 462 32 353 27 180 20 c 1028
EndSplineSet
EndChar

StartChar: e
Encoding: 101 101 149
GlifName: e
Width: 630
VWidth: 0
Flags: HW
HStem: -20 72<267.898 443.698> 552 71<270.521 435.261>
VStem: 71 98<299 435.133> 471 98<368.776 516.355>
LayerCount: 2
Fore
SplineSet
95 260 m 4
 317 270 520 287 520 450 c 4
 520 663 110 642 120 295 c 4
 130 -44 438 -29 530 105 c 1029
EndSplineSet
EndChar

StartChar: n
Encoding: 110 110 150
GlifName: n
Width: 660
VWidth: 0
Flags: HW
HStem: -10 16G<120.5 145.5 516 549.5> 549 72<339.452 448.164>
VStem: 55 98<444.545 608.365> 96 98<10 204.201> 486 98<-3.5163 502.798>
LayerCount: 2
Fore
SplineSet
145 20 m 5
 156 103 157 153 195 325 c 4
 223 451 272 585 415 585 c 4
 502 585 530 505 530 365 c 4
 530 239 533 130 535 25 c 1029
105 580 m 5
 130 516 144 312 145 20 c 1029
EndSplineSet
EndChar

StartChar: s
Encoding: 115 115 151
GlifName: s
Width: 570
VWidth: 0
Flags: HW
HStem: -20 72<206.302 391.967> 554 72<193.763 360.726>
VStem: 56 93<404.592 513.567> 60 98<97.8161 153.365> 381 99<441.662 533.436> 431 95<89.8179 209.212>
LayerCount: 2
Fore
SplineSet
110 125 m 0
 136 60 199 16 294 16 c 0
 482 16 552 222 370 280 c 0
 343 289 243 324 210 335 c 0
 26 396 99 590 305 590 c 4
 390 590 439 531 430 470 c 1025
EndSplineSet
EndChar

StartChar: S
Encoding: 83 83 152
GlifName: S_
Width: 700
VWidth: 0
Flags: HW
HStem: -22 78<260.996 480.108> 744 78<252.092 451.148>
VStem: 60 109<142.472 187.748 538.02 669.495> 494 110<594.958 701.06> 555 109<126.374 273.929>
LayerCount: 2
Fore
SplineSet
122 163 m 4
 157 76 240 17 367 17 c 4
 618 17 711 292 468 369 c 4
 432 381 299 428 255 443 c 4
 10 524 107 783 382 783 c 4
 495 783 560 704 548 623 c 1029
EndSplineSet
EndChar

StartChar: m
Encoding: 109 109 153
GlifName: m
Width: 965
VWidth: 0
Flags: HW
HStem: -10 21G<115.5 141 455.5 481 806 838.5> 549 72<290.474 403.271 630.144 741.261>
VStem: 76 101<467.705 609.112> 96 98<7 297.902> 436 98<16 286.612> 781 98<-0.452385 503.983>
LayerCount: 2
Fore
SplineSet
825 25 m 1
 825 130 830 222 830 295 c 0
 830 495 794 585 700 585 c 0
 597 585 544 494 525 365 c 0
 499 192 496 107 485 24 c 1
 485 132 490 222 490 295 c 0
 490 495 454 585 360 585 c 0
 257 585 204 494 185 365 c 0
 159 192 156 98 145 15 c 5
 144 155 137 471 125 580 c 1025
EndSplineSet
EndChar

StartChar: A
Encoding: 65 65 154
GlifName: A_
Width: 810
VWidth: 0
Flags: HW
HStem: -16 21G<79 92.5> 209 72<268.033 582.954> 800 20G<399 421.5>
VStem: 670 103<8.61237 82.6019>
LayerCount: 2
Fore
SplineSet
85 215 m 5
 178 230 397 245 490 245 c 4
 682 245 681 121 720 40 c 5
 688 148 563 509 415 785 c 5
 360 624 199 200 90 20 c 1029
EndSplineSet
EndChar

StartChar: g
Encoding: 103 103 155
GlifName: g
Width: 650
VWidth: 0
Flags: HW
HStem: -266 72<262.638 423.667> -21 72<225.748 358.538> 549 72<293.112 416.394>
VStem: 60 99<126.817 379.327> 441 98<236.17 356 438.78 523.374> 493 89<-104.182 164.897>
LayerCount: 2
Fore
SplineSet
490 340 m 0
 576 8 535 -230 340 -230 c 4
 283 -230 227 -208 200 -170 c 1024
490 340 m 1
 482 204 444 15 290 15 c 0
 -2 15 85 585 379 585 c 0
 470 585 490 492 490 467 c 1025
EndSplineSet
EndChar

StartChar: h
Encoding: 104 104 156
GlifName: h
Width: 670
VWidth: 0
Flags: HW
HStem: -14 21G<125.5 148.5 526 559.5> 549 72<346.483 458.164> 826 20G<119 131.5>
VStem: 106 98<12 220.803> 496 98<-3.5163 502.798>
LayerCount: 2
Fore
SplineSet
155 20 m 5
 166 103 167 153 205 325 c 0
 233 451 282 585 425 585 c 0
 512 585 540 505 540 365 c 0
 540 239 543 130 545 25 c 1025
115 810 m 5
 140 746 154 312 155 20 c 1029
EndSplineSet
EndChar

StartChar: r
Encoding: 114 114 157
GlifName: r
Width: 510
VWidth: 0
Flags: HW
HStem: -13 21G<189 217> 536 70<26.4775 83.8188> 549 72<323.233 431.531>
VStem: 171 100<15 312.546>
LayerCount: 2
Fore
SplineSet
440 560 m 5
 307 641 245 512 235 379 c 4
 222 200 226 160 220 20 c 5
 214 153 210 238 190 360 c 0
 173 464 136 552 70 570 c 1025
EndSplineSet
EndChar

StartChar: t
Encoding: 116 116 158
GlifName: t
Width: 480
VWidth: 0
Flags: HW
HStem: -18 69<253.394 358.347> 524 77<24.9924 141 239 404.093>
VStem: 131 98<74.332 444.741> 145 89<596 747.03>
LayerCount: 2
Fore
SplineSet
360 560 m 4
 215 555 162 557 70 565 c 1028
185 715 m 0
 199 518 180 326 180 150 c 0
 180 40 270 -35 400 60 c 1025
EndSplineSet
EndChar

StartChar: f
Encoding: 102 102 159
GlifName: f
Width: 480
VWidth: 0
Flags: HW
HStem: -20 21G<196 228.5> 529 72<24.9924 147 248 406.873> 803 71<252.461 378.453>
VStem: 132 96<597.594 785.672> 167 98<-12.6965 391.009>
LayerCount: 2
Fore
SplineSet
360 560 m 4
 215 555 162 557 70 565 c 1028
215 15 m 5
 219 315 202 513 180 705 c 4
 167 815 300 890 430 795 c 1029
EndSplineSet
EndChar

StartChar: j
Encoding: 106 106 160
GlifName: j
Width: 340
VWidth: 0
Flags: HW
HStem: -246 67<34.334 102.693> 586 20G<180.5 193.5> 725 137<109.137 229.514>
VStem: 86 168<749.13 838.517> 126 98<279.624 598.807> 146 98<-130.651 301.542>
LayerCount: 2
Fore
SplineSet
175 570 m 1
 186 446 195 260 195 10 c 0
 195 -127 153 -182 80 -210 c 1025
EndSplineSet
Refer: 12 46 S 1 0 0 1 5 730 2
EndChar

StartChar: x
Encoding: 120 120 161
GlifName: x
Width: 600
VWidth: 0
Flags: HW
HStem: -6 21G<64.5 77> 581 20G<121.5 134.5 483 495.5>
LayerCount: 2
Fore
SplineSet
485 565 m 0
 312 360 219 235 75 30 c 1028
120 565 m 0
 260 360 345 243 520 40 c 1024
EndSplineSet
EndChar

StartChar: X
Encoding: 88 88 162
GlifName: X_
Width: 780
VWidth: 0
Flags: HW
HStem: -9 21G<74 88> 779 20G<147 161 642 655.5>
LayerCount: 2
Fore
SplineSet
643 760 m 0
 412 487 277 303 85 30 c 1024
145 760 m 4
 332 487 457 314 690 43 c 1024
EndSplineSet
EndChar

StartChar: v
Encoding: 118 118 163
GlifName: v
Width: 630
VWidth: 0
Flags: HW
HStem: -18 21G<291.5 312> 581 20G<87 99.5>
VStem: 497 97<483.313 582.985>
LayerCount: 2
Fore
SplineSet
545 555 m 1
 521 474 426 227 315 20 c 1
 274 141 167 430 85 565 c 1029
EndSplineSet
EndChar

StartChar: w
Encoding: 119 119 164
GlifName: w
Width: 840
VWidth: 0
Flags: HW
HStem: -11 21G<211 231 572 592.5> 581 20G<94 106.5 746 774>
VStem: 41 97<495.924 593.526>
LayerCount: 2
Fore
SplineSet
750 565 m 1
 698 420 662 254 600 20 c 5
 554 151 433 505 413 535 c 1
 395 505 276 118 240 15 c 1
 192 208 128 447 90 565 c 1025
EndSplineSet
EndChar

StartChar: V
Encoding: 86 86 165
GlifName: V_
Width: 810
VWidth: 0
Flags: HW
HStem: -21 21G<379 401.5> 784 20G<96.5 110.5>
VStem: 662 107<680.691 782.04>
LayerCount: 2
Fore
SplineSet
715 752 m 1
 683 643 555 299 405 20 c 1
 350 183 206 583 95 765 c 1029
EndSplineSet
EndChar

StartChar: W
Encoding: 87 87 166
GlifName: W_
Width: 1100
VWidth: 0
Flags: HW
HStem: -10 21G<273 295.5 763.5 786> 779 20G<104 118 995.5 1026>
VStem: 46 107<697.267 790.261> 952 103<690.348 791.846>
LayerCount: 2
Fore
SplineSet
1000 760 m 5
 929 563 879 343 795 25 c 5
 732 203 567 684 540 725 c 5
 516 684 354 160 305 20 c 5
 240 282 152 600 100 760 c 1029
EndSplineSet
EndChar

StartChar: U
Encoding: 85 85 167
GlifName: U_
Width: 820
VWidth: 0
Flags: HW
HStem: -24 78<296.636 528.842> 779 20G<146 182 641 677.5>
VStem: 96 108<156.872 623.077> 107 108<462.671 790.169> 603 108<133.948 312.314 463.637 790.698> 616 108<161.738 624.517>
LayerCount: 2
Fore
SplineSet
657 760 m 1
 660 588 670 417 670 320 c 0
 670 144 606 15 410 15 c 0
 235 15 150 99 150 320 c 0
 150 417 161 620 161 760 c 1029
EndSplineSet
EndChar

StartChar: z
Encoding: 122 122 168
GlifName: z
Width: 590
VWidth: 0
Flags: HW
HStem: -17 78<161.547 530.174> -3 72<257.505 548.066> 525 72<63.875 392> 530 72<66.8279 273.982>
LayerCount: 2
Fore
SplineSet
500 33 m 5
 372 21 100 16 100 50 c 4
 100 104 286 322 480 570 c 5
 335 561 263 558 115 566 c 1028
EndSplineSet
EndChar

StartChar: Z
Encoding: 90 90 169
GlifName: Z_
Width: 750
VWidth: 0
Flags: HW
HStem: -13 87<178.542 627.034> 5 80<369.651 699.113> 709 80<71.5543 517> 715 80<76.5212 344.279> 780 20G<568.5 640>
LayerCount: 2
Fore
SplineSet
645 45 m 5
 475 29 110 21 110 67 c 4
 110 139 360 430 618 760 c 5
 425 748 327 744 130 755 c 1024
EndSplineSet
EndChar

StartChar: p
Encoding: 112 112 170
GlifName: p
Width: 680
VWidth: 0
Flags: HW
HStem: -246 21G<130 160.5> -16 72<264.547 426.843> 549 72<288.628 430.001>
VStem: 41 88<547.62 613.54> 101 102<-236.646 33 118.451 423.152> 523 99<176.148 434.745>
LayerCount: 2
Fore
SplineSet
140 -210 m 0
 148 -103 149 147 145 270 c 0
 141 408 121 530 80 585 c 1024
145 300 m 0
 164 414 200 585 350 585 c 0
 642 585 631 20 330 20 c 0
 175 20 150 197 148 220 c 1025
EndSplineSet
EndChar

StartChar: L
Encoding: 76 76 171
GlifName: L_
Width: 660
VWidth: 0
Flags: HW
HStem: -23 78<236.103 581.46> -9 78<310.529 627.711> 784 20G<190 204>
VStem: 126 108<61.2591 401.953 529.125 791.845> 144 108<215.256 793.948>
LayerCount: 2
Fore
SplineSet
580 30 m 4
 297 18 172 -16 180 100 c 4
 190 243 212 562 185 765 c 1028
EndSplineSet
EndChar

StartChar: M
Encoding: 77 77 172
GlifName: M_
Width: 900
VWidth: 0
Flags: HW
HStem: -19 21G<98.5 130 761 775> 785 20G<751.5 774>
VStem: 66 108<-9.94189 322.478> 102 105<354.505 586> 691 104<457.428 598 733.577 784> 726 108<0.260559 322.033>
LayerCount: 2
Fore
SplineSet
120 20 m 5
 142 200 152 544 160 760 c 5
 362 403 432 197 450 180 c 5
 468 196 547 415 740 775 c 5
 744 541 761 170 780 30 c 1029
EndSplineSet
EndChar

StartChar: N
Encoding: 78 78 173
GlifName: N_
Width: 820
VWidth: 0
Flags: HW
HStem: -14 21G<144 180 660.5 684.5> 784 20G<158 179.5 660.5 674.5>
VStem: 97 118<432.177 602> 112 108<-4.625 504.52> 601 108<471.838 795.591> 613 108<177 548.843>
LayerCount: 2
Fore
SplineSet
165 25 m 5
 167 276 167 590 150 770 c 5
 314 548 630 61 665 30 c 5
 669 198 668 602 655 765 c 1029
EndSplineSet
EndChar

StartChar: F
Encoding: 70 70 174
GlifName: F_
Width: 710
VWidth: 0
Flags: HW
HStem: -14 21G<149.5 183> 355 78<69.834 123 232 562.68> 726 78<219 606.913> 736 78<341.248 647.479>
VStem: 116 108<-5.05273 356 435 725.874>
LayerCount: 2
Fore
SplineSet
120 400 m 4
 284 392 356 392 520 400 c 1028
600 775 m 5
 532 768 365 759 100 770 c 5
 161 752 174 717 175 640 c 4
 178 420 181 208 170 25 c 1029
EndSplineSet
EndChar

StartChar: E
Encoding: 69 69 175
GlifName: E_
Width: 740
VWidth: 0
Flags: HW
HStem: -24 80<220.433 605.197> -9 78<357.598 677.711> 355 78<69.834 119 229 562.68> 726 78<74.3922 112.796 219 606.913> 736 78<341.248 647.479>
VStem: 106 108<66.4187 351.602> 122 108<62.723 356 435 723.694>
LayerCount: 2
Fore
SplineSet
630 30 m 4
 347 18 152 -16 160 100 c 4
 170 243 178 420 175 640 c 4
 174 717 161 752 100 770 c 5
 365 759 532 768 600 775 c 1029
120 400 m 4
 284 392 356 392 520 400 c 1028
EndSplineSet
EndChar

StartChar: H
Encoding: 72 72 176
GlifName: H_
Width: 820
VWidth: 0
Flags: HW
HStem: -14 25G<144 180 644 658.5> 355 78<69.834 113 221 606> 789 15G<161 175.5 645 681>
VStem: 101 108<472.332 799.84> 113 108<-3.98047 357 436 742.797> 606 108<-2.8169 358 435 795.169>
LayerCount: 2
Fore
SplineSet
120 400 m 4
 284 392 536 392 700 400 c 1028
165 25 m 5
 167 276 172 590 155 770 c 1029
665 30 m 5
 661 198 658 517 660 765 c 1029
EndSplineSet
EndChar

StartChar: k
Encoding: 107 107 177
GlifName: k
Width: 620
VWidth: 0
Flags: HW
HStem: -15 25G<141 173.5 525.5 538> 586 20G<501 513.5> 826 20G<129 141.5>
VStem: 107 100<-9.1669 265 414 660.713>
LayerCount: 2
Fore
SplineSet
540 25 m 1
 513 58 315 282 130 340 c 5
 277 413 434 512 500 570 c 1025
125 810 m 1
 150 746 159 312 160 20 c 1025
EndSplineSet
EndChar

StartChar: T
Encoding: 84 84 178
GlifName: T_
Width: 720
VWidth: 0
Flags: HW
HStem: -19 21G<339 374> 722 78<402 659.422> 731 78<405.564 677.594>
VStem: 309 108<-8.54387 705.75>
LayerCount: 2
Fore
SplineSet
630 770 m 4
 549 767 458 761 374 761 c 4
 224 761 96 771 90 770 c 5
 95 767 218 756 284 748 c 4
 320 744 352 727 355 680 c 4
 364 540 366 332 360 20 c 1028
EndSplineSet
EndChar

StartChar: K
Encoding: 75 75 179
GlifName: K_
Width: 780
VWidth: 0
Flags: HW
HStem: -14 26G<154 190 673 687> 789 20G<145 159 633.5 647.5>
VStem: 86 107<580.186 800.281> 121 108<-5.16879 367 544 721.233>
LayerCount: 2
Fore
SplineSet
690 30 m 5
 653 75 383 376 130 455 c 5
 331 555 545 691 635 770 c 1029
140 770 m 5
 167 682 174 425 175 25 c 1029
EndSplineSet
EndChar

StartChar: y
Encoding: 121 121 180
GlifName: y
Width: 630
VWidth: 0
Flags: HW
HStem: -257 72<210.983 332.032> 585 20G<111 123.5>
VStem: 56 98<436.609 598.096>
LayerCount: 2
Fore
SplineSet
525 560 m 5
 512 479 492 356 465 260 c 4
 433 146 364 40 295 40 c 4
 212 40 169 216 105 570 c 1029
525 560 m 5
 505 370 488 282 465 150 c 4
 422 -95 397 -297 180 -197 c 1029
EndSplineSet
EndChar

StartChar: I
Encoding: 73 73 181
GlifName: I_
Width: 480
VWidth: 0
Flags: HW
HStem: 3 66<57.8147 192> 11 64<292.734 390> 729 69<82.1704 187.859 288 419.766>
VStem: 194 104<77.3115 717.164>
LayerCount: 2
Fore
SplineSet
105 36 m 4
 217 31 292 24 385 42 c 5
 293 47 240 35 240 100 c 4
 240 313 248 460 245 680 c 4
 244 757 176 747 105 765 c 5
 207 761 298 760 375 765 c 1028
EndSplineSet
EndChar

StartChar: backslash
Encoding: 92 92 182
GlifName: backslash
Width: 480
VWidth: 0
Flags: HW
HStem: -29 21G<388 398> 809 20G<82.5 93>
VStem: 40 79<738.245 825.389>
LayerCount: 2
Fore
SplineSet
80 800 m 4
 171 524 274 264 400 0 c 1028
EndSplineSet
EndChar

StartChar: at
Encoding: 64 64 183
GlifName: at
Width: 1020
VWidth: 0
Flags: HW
HStem: -179 58<363.96 626.488> 38 64<419.118 520.897> 490 64<496.168 607.063> 711 58<421.405 685.872>
VStem: 74 79<93.1392 402.861> 293 89<142.029 351.161> 603 87<243.517 345> 622 90<404.542 479.185> 865 80<256.798 527.563>
LayerCount: 2
Fore
SplineSet
696 -95 m 5
 666 -113 581 -150 502 -150 c 4
 -88 -150 46 740 558 740 c 4
 953 740 1005 248 742 85 c 4
 652 29 624 131 647 330 c 1029
667 431 m 2
 667 451 651 522 578 522 c 0
 333 522 238 70 472 70 c 0
 578 70 618 212 647 330 c 1029
EndSplineSet
EndChar

StartChar: asciitilde
Encoding: 126 126 184
GlifName: asciitilde
Width: 600
VWidth: 0
Flags: HW
HStem: 249 72<359.281 430.115> 359 72<170.621 240.622>
VStem: 51 96<266 337.053> 452 97<340.566 414.098>
LayerCount: 2
Fore
SplineSet
500 385 m 5
 488 349 452 285 396 285 c 4
 316 285 283 395 204 395 c 4
 147 395 114 331 100 295 c 1029
EndSplineSet
EndChar

StartChar: braceleft
Encoding: 123 123 185
GlifName: braceleft
Width: 360
VWidth: 0
Flags: HW
HStem: -89 58<205.639 298.194> 831 58<198.979 298.194>
VStem: 112 80<-18.0431 239.758 548.456 827.072> 128 79<52.1201 332.986 448.085 764.925>
LayerCount: 2
Fore
SplineSet
260 860 m 5
 124 860 152 767 166 648 c 4
 180 534 191 433 70 400 c 5
 182 353 172 251 162 162 c 4
 150 53 124 -60 260 -60 c 1029
EndSplineSet
EndChar

StartChar: bar
Encoding: 124 124 186
GlifName: bar
Width: 360
VWidth: 0
Flags: HW
VStem: 137 89<-85.863 888.291>
LayerCount: 2
Fore
SplineSet
175 860 m 4
 184 554 182 324 180 -60 c 1052
EndSplineSet
EndChar

StartChar: braceright
Encoding: 125 125 187
GlifName: braceright
Width: 360
VWidth: 0
Flags: HW
HStem: -89 58<61.8055 161.021> 831 58<61.8055 154.361>
VStem: 145 81<35.0754 345.485 476.129 747.88> 166 81<-27.4075 251.544 560.242 819.956>
LayerCount: 2
Fore
SplineSet
100 -60 m 1
 236 -60 208 33 194 152 c 0
 180 266 169 367 290 400 c 1
 178 447 188 549 198 638 c 0
 210 747 236 860 100 860 c 1029
EndSplineSet
EndChar

StartChar: equal
Encoding: 61 61 188
GlifName: equal
Width: 600
VWidth: 0
Flags: HW
HStem: 201 80<79.9924 517.039> 401 80<79.9924 517.039>
LayerCount: 2
Fore
SplineSet
125 245 m 4
 213 237 336 235 475 240 c 1028
125 445 m 4
 213 437 336 435 475 440 c 1028
EndSplineSet
EndChar

StartChar: J
Encoding: 74 74 189
GlifName: J_
Width: 540
VWidth: 0
Flags: HW
HStem: -14 78<155.859 292.647> 734 64<157.17 276.631 388 498.924>
VStem: 318 104<87.6492 523.556>
LayerCount: 2
Fore
SplineSet
70 100 m 0
 99 61 163 25 228 25 c 0
 349 25 370 111 370 223 c 4
 370 344 362 572 350 680 c 4
 341 757 251 747 180 765 c 5
 282 761 373 760 450 765 c 1028
EndSplineSet
EndChar

StartChar: Y
Encoding: 89 89 190
GlifName: Y_
Width: 720
VWidth: 0
Flags: HW
HStem: -20 21G<350.5 364.5> 779 20G<93.5 108 627 658.5>
VStem: 35 108<715.854 800.407> 310 114<-10.5907 304.25> 578 107<710.674 790.238>
LayerCount: 2
Fore
SplineSet
90 770 m 4
 156 581 264 383 357 336 c 5
 381 345 393 355 427 392 c 1028
630 760 m 4
 474 399 367 363 365 260 c 4
 363 180 364 104 370 20 c 1029
EndSplineSet
EndChar

StartChar: G
Encoding: 71 71 191
GlifName: G_
Width: 790
VWidth: 0
Flags: HW
HStem: -24 78<330.079 527.394> 741 79<331.616 521.238>
VStem: 71 108<232.809 554.632> 572 108<595.831 691.682> 615 110<148.012 318.614>
LayerCount: 2
Fore
SplineSet
440 330 m 5
 473 339 558 357 594 360 c 4
 719 370 708 15 420 15 c 4
 261 15 125 140 125 393 c 4
 125 865 626 858 626 626 c 1029
EndSplineSet
EndChar

StartChar: D
Encoding: 68 68 192
GlifName: D_
Width: 810
VWidth: 0
Flags: HW
HStem: -21 80<229.796 462.974> 742 78<214.588 482.074>
VStem: 116 108<392.077 634.739> 125 108<67.7108 636.47> 630 109<246.078 572.867>
LayerCount: 2
Fore
SplineSet
80 700 m 4
 330 838 645 820 680 485 c 4
 739 -79 175 -6 175 70 c 4
 175 163 187 477 170 605 c 1028
EndSplineSet
EndChar

StartChar: P
Encoding: 80 80 193
GlifName: P_
Width: 760
VWidth: 0
Flags: HW
HStem: -24 21G<159 194> 302 77<240.583 490.296> 365 74<46.5691 126.753> 744 79<227.62 497.044>
VStem: 116 108<436.538 634.739> 130 109<-11.6406 312 433 632.471> 592 111<469.638 654.502>
LayerCount: 2
Fore
SplineSet
80 700 m 4
 829 1063 841 97 90 400 c 1028
180 15 m 4
 187 224 187 477 170 605 c 1028
EndSplineSet
EndChar

StartChar: R
Encoding: 82 82 194
GlifName: R_
Width: 780
VWidth: 0
Flags: HW
HStem: -24 21G<159 194 675.5 689.5> 332 79<403.337 529.185> 745 77<237.621 511.191>
VStem: 116 108<430.947 634.739> 130 108<-12.3127 350 426 560.61> 605 110<485.258 661.146>
LayerCount: 2
Fore
SplineSet
690 10 m 4
 545 118 260 400 260 400 c 4
 817 210 824 1042 80 700 c 1028
180 15 m 4
 187 224 187 477 170 605 c 1028
EndSplineSet
EndChar

StartChar: B
Encoding: 66 66 195
GlifName: B_
Width: 800
VWidth: 0
Flags: HW
HStem: -22 81<229.699 479.762> 742 77<228.118 481.273>
VStem: 116 108<424.41 634.739> 125 108<63.627 383 421 636.47> 537 109<547.438 691.264> 637 108<184.874 355.515>
LayerCount: 2
Fore
SplineSet
80 700 m 4
 599 940 714 574 465 460 c 4
 409 434 334 404 260 390 c 5
 398 447 707 485 690 270 c 4
 666 -29 175 -6 175 60 c 4
 175 153 187 477 170 605 c 1028
EndSplineSet
EndChar

StartChar: uni0E3F
Encoding: 3647 3647 196
GlifName: uni0E_3F_
Width: 800
VWidth: 0
Flags: HW
HStem: -22 81<229.763 348> -11 80<424 506.547> 661 71<31.3794 113.404> 741 76<225.211 346 421 482.784>
VStem: 116 108<424.41 634.739> 125 108<63.627 383 421 636.47> 343 74<74.4742 371 481 733.693> 348 74<-124.9 -20 69 333.848 484.799 738 815.452 923.688> 537 109<547.438 691.721> 637 108<185.771 355.515>
LayerCount: 2
Fore
SplineSet
385 900 m 4
 380 507 376 293 390 -100 c 1052
EndSplineSet
Refer: 195 66 N 1 0 0 1 0 0 2
EndChar

StartChar: less
Encoding: 60 60 197
GlifName: less
Width: 600
VWidth: 0
Flags: HW
HStem: 596 20G<475 487.5>
LayerCount: 2
Fore
SplineSet
485 100 m 5
 404 146 231 257 115 340 c 5
 228 402 387 516 475 580 c 1029
EndSplineSet
EndChar

StartChar: greater
Encoding: 62 62 198
GlifName: greater
Width: 600
VWidth: 0
Flags: HW
HStem: 595 20G<114 127>
LayerCount: 2
Fore
SplineSet
115 580 m 1
 196 534 369 423 485 340 c 1
 372 278 213 164 125 100 c 1029
EndSplineSet
EndChar

StartChar: grave
Encoding: 96 96 199
GlifName: grave
Width: 360
VWidth: 0
Flags: HW
HStem: 541 307
VStem: 20 303
LayerCount: 2
Fore
SplineSet
60 785 m 1
 86 815 l 1
 170 736 288 585 295 570 c 5
 278 580 142 720 60 785 c 1
EndSplineSet
EndChar

StartChar: asciicircum
Encoding: 94 94 200
GlifName: asciicircum
Width: 510
VWidth: 0
Flags: HW
HStem: 531 318
LayerCount: 2
Fore
SplineSet
255 815 m 5
 339 731 443 575 450 560 c 5
 435 569 335 700 258 775 c 5
 188 696 76 569 60 560 c 5
 67 575 183 722 255 815 c 5
EndSplineSet
EndChar

StartChar: underscore
Encoding: 95 95 201
GlifName: underscore
Width: 600
VWidth: 0
Flags: HW
HStem: -69 80<34.9924 562.039>
LayerCount: 2
Fore
SplineSet
80 -25 m 4
 168 -33 381 -35 520 -30 c 1028
EndSplineSet
EndChar

StartChar: bracketleft
Encoding: 91 91 202
GlifName: bracketleft
Width: 360
VWidth: 0
Flags: HW
HStem: -91 57<156 297.393> 830 58<153 298.27>
VStem: 92 79<130.506 681.815>
LayerCount: 2
Fore
SplineSet
260 -60 m 5
 240 -60 177 -63 115 -62 c 5
 143 331 132 674 110 860 c 5
 159 858 234 858 260 860 c 1029
EndSplineSet
EndChar

StartChar: bracketright
Encoding: 93 93 203
GlifName: bracketright
Width: 360
VWidth: 0
Flags: HW
HStem: -90 58<61.7299 207> 829 58<61.8055 204>
VStem: 189 79<116.185 667.494>
LayerCount: 2
Fore
SplineSet
100 858 m 5
 120 858 183 861 245 860 c 5
 217 467 228 124 250 -62 c 5
 201 -60 126 -60 100 -62 c 1029
EndSplineSet
EndChar

StartChar: eight
Encoding: 56 56 204
GlifName: eight
Width: 720
VWidth: 0
Flags: HW
HStem: -24 78<265.419 477.528> 600 20G<550.5 564.5> 741 78<247.781 433.619>
VStem: 76 108<125.485 282.824> 87 108<559.013 688.989> 549 110<121.051 283.344>
LayerCount: 2
Fore
SplineSet
550 580 m 4
 550 580 493 541 389 474 c 4
 250 384 130 321 130 194 c 4
 130 107 214 15 360 15 c 4
 654 15 712 344 370 430 c 4
 5 522 139 780 340 780 c 4
 439 780 504 735 540 690 c 1028
EndSplineSet
EndChar

StartChar: six
Encoding: 54 54 205
GlifName: six
Width: 720
VWidth: 0
Flags: HW
HStem: -29 78<294.351 481.131> 397 79<295.307 489.048> 809 20G<420.5 434.5>
VStem: 32 166<257.96 318.867> 90 108<157.386 251> 560 108<129.726 319.801>
LayerCount: 2
Fore
SplineSet
90 290 m 4
 655 740 784 10 375 10 c 4
 74 10 44 480 420 790 c 1028
EndSplineSet
EndChar

StartChar: nine
Encoding: 57 57 206
GlifName: nine
Width: 720
VWidth: 0
Flags: HW
HStem: -29 21G<285.5 299.5> 324 79<230.952 424.693> 751 78<238.869 425.649>
VStem: 52 108<480.199 670.274> 522 108<549 642.614>
LayerCount: 2
Fore
SplineSet
630 510 m 4
 65 60 -64 790 345 790 c 4
 646 790 676 320 300 10 c 1028
EndSplineSet
EndChar

StartChar: three
Encoding: 51 51 207
GlifName: three
Width: 720
VWidth: 0
Flags: HW
HStem: -27 81<252.159 478.944> 361 76<229 367.542> 630 21G<118 132> 741 79<247.895 439.861>
VStem: 491 108<521.79 690.515> 546 108<120.892 316.947>
LayerCount: 2
Fore
SplineSet
130 670 m 4
 244 826 545 827 545 610 c 4
 545 414 283 411 240 400 c 5
 294 400 600 472 600 230 c 4
 600 -48 225 -29 120 120 c 1028
EndSplineSet
EndChar

StartChar: question
Encoding: 63 63 208
GlifName: question
Width: 480
VWidth: 0
Flags: HW
HStem: -5 137<175.137 295.514> 784 72<140.646 311.389>
VStem: 11 97<624.203 753.365> 152 168<19.1304 108.517> 161 90<285.726 418.325> 351 98<598.532 744.867>
LayerCount: 2
Fore
SplineSet
220 290 m 4
 144 464 400 511 400 670 c 4
 400 918 -39 827 80 630 c 1028
EndSplineSet
Refer: 12 46 S 1 0 0 1 71 0 2
EndChar

StartChar: seven
Encoding: 55 55 209
GlifName: seven
Width: 720
VWidth: 0
Flags: HW
HStem: -19 21G<307 334.5> 716 78<184.35 520.217> 785 20G<611.5 623>
VStem: 111 98<561.318 699.998>
LayerCount: 2
Fore
SplineSet
160 590 m 4
 149 660 131 721 120 765 c 5
 166 763 266 755 360 755 c 4
 465 755 536 761 600 765 c 5
 469 516 397 328 329 20 c 1025
EndSplineSet
EndChar

StartChar: five
Encoding: 53 53 210
GlifName: five
Width: 720
VWidth: 0
Flags: HW
HStem: -26 79<257.415 462.518> 409 78<261.006 484.769> 716 78<237.484 593.117> 726 79<387.055 618.012>
VStem: 128 108<454.668 719> 541 108<131.208 350.885>
LayerCount: 2
Fore
SplineSet
130 120 m 0
 225 -29 595 -52 595 250 c 4
 595 492 348 484 160 380 c 1
 170 482 188 654 180 765 c 1
 226 759 291 755 375 755 c 0
 464 755 523 758 570 765 c 1024
EndSplineSet
EndChar

StartChar: two
Encoding: 50 50 211
GlifName: two
Width: 720
VWidth: 0
Flags: HW
HStem: -13 84<181.689 598.011> 6 78<332.232 642.479> 620 21G<123.5 137.5> 740 79<256.59 444.738>
VStem: 501 108<519.364 683.913>
LayerCount: 2
Fore
SplineSet
135 660 m 4
 239 826 555 831 555 600 c 4
 555 382 125 286 125 65 c 4
 125 16 443 29 595 45 c 1029
EndSplineSet
EndChar

StartChar: four
Encoding: 52 52 212
GlifName: four
Width: 720
VWidth: 0
Flags: HW
HStem: -30 21G<494 508.5> 174 79<154.587 456> 191 78<564 682.884> 599 20G<495 530.5> 809 20G<315 351>
VStem: 276 108<635.01 820.169> 456 108<-22.7069 179 263 610.53>
LayerCount: 2
Fore
SplineSet
510 580 m 4
 508 392 509 113 515 10 c 1028
330 790 m 4
 329 501 85 276 85 240 c 4
 85 209 393 210 635 230 c 1028
EndSplineSet
EndChar

StartChar: bullet
Encoding: 8226 8226 216
GlifName: bullet
Width: 720
VWidth: 0
Flags: HW
HStem: 234 232<280.203 376.766 377.234 436.403>
VStem: 231 258<282.222 418.241>
LayerCount: 2
Fore
SplineSet
355 430 m 6
 306 430 280 388 280 345 c 4
 280 298 321 270 355 270 c 4
 398 270 440 298 440 340 c 4
 440 380 428 413 385 430 c 1029
EndSplineSet
EndChar

StartChar: ellipsis
Encoding: 8230 8230 217
GlifName: ellipsis
Width: 720
VWidth: 0
Flags: HW
HStem: 2 123<78.75 190.788 303.75 415.788 528.75 640.788>
VStem: 60 150<22.0399 105.386> 285 150<22.0399 105.386> 510 150<22.0399 105.386>
CounterMasks: 1 70
LayerCount: 2
Fore
SplineSet
378 89 m 6
 382 84 390 76 390 65 c 4
 390 47 379 34 358 34 c 4
 342 34 330 43 330 62 c 4
 330 77 342 93 362 93 c 5
 378 89 l 6
603 89 m 6
 607 84 615 76 615 65 c 4
 615 47 604 34 583 34 c 4
 567 34 555 43 555 62 c 4
 555 77 567 93 587 93 c 5
 603 89 l 6
153 89 m 6
 157 84 165 76 165 65 c 4
 165 47 154 34 133 34 c 4
 117 34 105 43 105 62 c 4
 105 77 117 93 137 93 c 5
 153 89 l 6
EndSplineSet
EndChar

StartChar: quoteright
Encoding: 8217 8217 218
GlifName: quoteright
Width: 330
VWidth: 0
Flags: HW
HStem: 538 58<66.3318 120.687> 768 79<81.6628 147.997>
VStem: 170 91<648.366 777.821>
LayerCount: 2
Fore
SplineSet
110 800 m 4
 231 873 271 651 105 570 c 1028
EndSplineSet
EndChar

StartChar: quoteleft
Encoding: 8216 8216 219
GlifName: quoteleft
Width: 330
VWidth: 0
Flags: HW
HStem: 533 79<182.003 248.337> 784 58<209.313 263.668>
VStem: 69 91<602.179 731.634>
LayerCount: 2
Fore
SplineSet
220 580 m 4
 99 507 59 729 225 810 c 1028
EndSplineSet
EndChar

StartChar: endash
Encoding: 8211 8211 222
GlifName: endash
Width: 660
VWidth: 0
Flags: HW
HStem: 301 80<79.9924 577.039>
LayerCount: 2
Fore
SplineSet
125 345 m 4
 213 337 396 335 535 340 c 1028
EndSplineSet
EndChar

StartChar: emdash
Encoding: 8212 8212 223
GlifName: emdash
Width: 1200
VWidth: 0
Flags: HW
HStem: 299 72<360.495 1055.19> 309 72<94.9924 394.108 797.815 1106.87>
LayerCount: 2
Fore
SplineSet
140 345 m 4
 282 332 834 333 1060 340 c 1028
EndSplineSet
EndChar

StartChar: guillemotleft
Encoding: 171 171 224
GlifName: guillemotleft
Width: 720
VWidth: 0
Flags: HW
HStem: 596 20G<323.5 335 593.5 605>
LayerCount: 2
Fore
SplineSet
605 100 m 5
 549 152 446 257 385 340 c 5
 470 414 562 521 595 580 c 1029
335 100 m 5
 279 152 176 257 115 340 c 5
 200 414 292 521 325 580 c 1029
EndSplineSet
EndChar

StartChar: guillemotright
Encoding: 187 187 225
GlifName: guillemotright
Width: 720
VWidth: 0
Flags: HW
HStem: 595 20G<112 122.5 382 392.5>
LayerCount: 2
Fore
SplineSet
115 580 m 5
 171 528 274 423 335 340 c 5
 250 266 158 159 125 100 c 1029
385 580 m 1
 441 528 544 423 605 340 c 1
 520 266 428 159 395 100 c 1025
EndSplineSet
EndChar

StartChar: copyright
Encoding: 169 169 226
GlifName: copyright
Width: 1020
VWidth: 0
Flags: HW
HStem: -27 54<382.399 649.244> 170 64<451.94 577.488> 549 64<449.629 556.355> 773 54<362.579 639.594>
VStem: 83 74<253.793 541.089> 315 90<283.95 499.4> 565 90<477.542 541.836> 863 74<259.102 519.715>
LayerCount: 2
Fore
SplineSet
627 261 m 5
 573 171 360 162 360 388 c 4
 360 624 610 620 610 504 c 1029
835 586 m 4
 981 444 888 0 510 0 c 4
 283 0 120 180 120 380 c 4
 120 628 277 800 499 800 c 4
 715 800 803 680 835 616 c 1028
EndSplineSet
EndChar

StartChar: registered
Encoding: 174 174 227
GlifName: registered
Width: 810
VWidth: 0
Flags: HW
HStem: 319 42<317.475 518.357> 757 52<346.531 470.065> 919 42<302.019 512.618>
VStem: 90 60<515.572 763.929> 301 71<470.75 592 664 721.248> 480 74<660.273 740.807> 677 60<521.228 741.723>
LayerCount: 2
Fore
SplineSet
530 493 m 4
 476 533 368 640 368 640 c 4
 576 569 579 880 300 752 c 1028
338 495 m 4
 341 573 341 668 335 716 c 1028
657 780 m 4
 767 674 697 340 413 340 c 4
 243 340 120 475 120 625 c 4
 120 811 239 940 405 940 c 4
 567 940 633 850 657 802 c 1028
EndSplineSet
EndChar

StartChar: .notdef
Encoding: 1114112 -1 234
Width: 720
VWidth: 0
Flags: HW
HStem: 0 40<200 520> 560 40<200 520>
VStem: 160 40<40 560> 520 40<40 560>
LayerCount: 2
Fore
SplineSet
180 580 m 29
 540 580 l 29
 540 20 l 29
 180 20 l 29
 180 580 l 29
EndSplineSet
EndChar

StartChar: Euro
Encoding: 8364 8364 236
Width: 720
VWidth: 0
Flags: HW
HStem: -15 72<334.37 505.812> 277 56<22.29 117 224 305.688 309.297 493.748> 448 58<221 448.7> 453 56<22.29 118 221 296.688 300.392 493.602> 745 71<339.291 498.111>
VStem: 115 98<330.148 449> 566 99<597.814 676.719>
LayerCount: 2
Fore
SplineSet
60 305 m 4
 148 297 316 295 455 300 c 1028
60 485 m 4
 148 477 316 475 455 480 c 1028
620 139 m 5
 511 -40 164 -59 164 393 c 4
 164 865 568 858 615 626 c 1029
EndSplineSet
EndChar

StartChar: trademark
Encoding: 8482 8482 237
Width: 930
VWidth: 0
Flags: HW
HStem: 745 68<46.0913 177.792> 755 58<256 391.753> 798 20G<776.5 794>
VStem: 181 80<384.902 744.999> 440 74<490.312 661 764.157 802.638> 735 75<512.265 668 756.517 813.254> 751 78<398.569 662.849>
LayerCount: 2
Fore
SplineSet
460 419 m 5
 471 509 476 681 480 789 c 5
 581 611 615 507 624 499 c 5
 633 507 674 616 770 796 c 5
 772 679 780 494 790 424 c 1029
354 784 m 4
 314 782 268 779 226 779 c 4
 151 779 87 784 84 784 c 5
 86 782 149 777 182 773 c 4
 200 771 215 763 217 739 c 4
 221 669 223 565 220 409 c 1028
EndSplineSet
EndChar
